<svg xmlns="http://www.w3.org/2000/svg" xmlns:xlink="http://www.w3.org/1999/xlink" width="198.1382" height="118.228" viewBox="0 0 198.1382 118.228"><defs><style>.cls-1{fill:url(#radial-gradient);}.cls-2{isolation:isolate;}.cls-3{fill:url(#linear-gradient);}.cls-132,.cls-135,.cls-139,.cls-141,.cls-18,.cls-28,.cls-32,.cls-33,.cls-34,.cls-35,.cls-36,.cls-37,.cls-38,.cls-39,.cls-4,.cls-40,.cls-41,.cls-42,.cls-43,.cls-44,.cls-45,.cls-46,.cls-47,.cls-48,.cls-49,.cls-50,.cls-51,.cls-52,.cls-53,.cls-54,.cls-55,.cls-56,.cls-57,.cls-58,.cls-59,.cls-60,.cls-61,.cls-62,.cls-63,.cls-64,.cls-65,.cls-66,.cls-67,.cls-68,.cls-69,.cls-70,.cls-71,.cls-72,.cls-73,.cls-74,.cls-75,.cls-76,.cls-77,.cls-78,.cls-79,.cls-80,.cls-81,.cls-9{mix-blend-mode:multiply;}.cls-4{opacity:0.8;}.cls-5{fill:url(#radial-gradient-2);}.cls-6{fill:url(#linear-gradient-2);}.cls-7{fill:url(#radial-gradient-3);}.cls-8{fill:url(#linear-gradient-4);}.cls-100,.cls-101,.cls-102,.cls-103,.cls-104,.cls-105,.cls-106,.cls-107,.cls-108,.cls-109,.cls-110,.cls-111,.cls-112,.cls-113,.cls-114,.cls-115,.cls-116,.cls-117,.cls-118,.cls-119,.cls-120,.cls-121,.cls-122,.cls-123,.cls-124,.cls-125,.cls-126,.cls-127,.cls-128,.cls-129,.cls-130,.cls-131,.cls-137,.cls-24,.cls-33,.cls-34,.cls-35,.cls-36,.cls-37,.cls-38,.cls-39,.cls-40,.cls-41,.cls-42,.cls-43,.cls-44,.cls-45,.cls-46,.cls-47,.cls-48,.cls-49,.cls-50,.cls-51,.cls-52,.cls-53,.cls-54,.cls-55,.cls-56,.cls-57,.cls-58,.cls-59,.cls-60,.cls-61,.cls-62,.cls-63,.cls-64,.cls-65,.cls-66,.cls-67,.cls-68,.cls-69,.cls-70,.cls-71,.cls-72,.cls-73,.cls-74,.cls-75,.cls-76,.cls-77,.cls-78,.cls-79,.cls-80,.cls-81,.cls-83,.cls-84,.cls-85,.cls-86,.cls-87,.cls-88,.cls-89,.cls-9,.cls-90,.cls-91,.cls-92,.cls-93,.cls-94,.cls-95,.cls-96,.cls-97,.cls-98,.cls-99{opacity:0.6;}.cls-10{fill:url(#linear-gradient-6);}.cls-11{fill:url(#linear-gradient-7);}.cls-12{fill:url(#radial-gradient-4);}.cls-13{fill:url(#linear-gradient-8);}.cls-14{fill:url(#linear-gradient-9);}.cls-15{fill:url(#linear-gradient-10);}.cls-16{fill:url(#radial-gradient-5);}.cls-17{fill:url(#linear-gradient-11);}.cls-18{fill:url(#radial-gradient-6);}.cls-19{fill:url(#linear-gradient-12);}.cls-20{fill:url(#radial-gradient-7);}.cls-100,.cls-101,.cls-102,.cls-103,.cls-104,.cls-105,.cls-106,.cls-107,.cls-108,.cls-109,.cls-110,.cls-111,.cls-112,.cls-113,.cls-114,.cls-115,.cls-116,.cls-117,.cls-118,.cls-119,.cls-120,.cls-121,.cls-122,.cls-123,.cls-124,.cls-125,.cls-126,.cls-127,.cls-128,.cls-129,.cls-130,.cls-131,.cls-137,.cls-21,.cls-83,.cls-84,.cls-85,.cls-86,.cls-87,.cls-88,.cls-89,.cls-90,.cls-91,.cls-92,.cls-93,.cls-94,.cls-95,.cls-96,.cls-97,.cls-98,.cls-99{mix-blend-mode:screen;}.cls-139,.cls-21{opacity:0.4;}.cls-22{fill:url(#radial-gradient-8);}.cls-23{fill:url(#linear-gradient-13);}.cls-25{fill:#fff;}.cls-26{fill:url(#linear-gradient-14);}.cls-27{fill:url(#linear-gradient-15);}.cls-29{fill:url(#radial-gradient-9);}.cls-30{fill:url(#linear-gradient-16);}.cls-31{mask:url(#mask);}.cls-32,.cls-82{opacity:0.5;}.cls-33{fill:url(#linear-gradient-17);}.cls-34{fill:url(#linear-gradient-18);}.cls-35{fill:url(#linear-gradient-19);}.cls-36{fill:url(#linear-gradient-20);}.cls-37{fill:url(#linear-gradient-21);}.cls-38{fill:url(#linear-gradient-22);}.cls-39{fill:url(#linear-gradient-23);}.cls-40{fill:url(#linear-gradient-24);}.cls-41{fill:url(#linear-gradient-25);}.cls-42{fill:url(#linear-gradient-26);}.cls-43{fill:url(#linear-gradient-27);}.cls-44{fill:url(#linear-gradient-28);}.cls-45{fill:url(#linear-gradient-29);}.cls-46{fill:url(#linear-gradient-30);}.cls-47{fill:url(#linear-gradient-31);}.cls-48{fill:url(#linear-gradient-32);}.cls-49{fill:url(#linear-gradient-33);}.cls-50{fill:url(#linear-gradient-34);}.cls-51{fill:url(#linear-gradient-35);}.cls-52{fill:url(#linear-gradient-36);}.cls-53{fill:url(#linear-gradient-37);}.cls-54{fill:url(#linear-gradient-38);}.cls-55{fill:url(#linear-gradient-39);}.cls-56{fill:url(#linear-gradient-40);}.cls-57{fill:url(#linear-gradient-41);}.cls-58{fill:url(#linear-gradient-42);}.cls-59{fill:url(#linear-gradient-43);}.cls-60{fill:url(#linear-gradient-44);}.cls-61{fill:url(#linear-gradient-45);}.cls-62{fill:url(#linear-gradient-46);}.cls-63{fill:url(#linear-gradient-47);}.cls-64{fill:url(#linear-gradient-48);}.cls-65{fill:url(#linear-gradient-49);}.cls-66{fill:url(#linear-gradient-50);}.cls-67{fill:url(#linear-gradient-51);}.cls-68{fill:url(#linear-gradient-52);}.cls-69{fill:url(#linear-gradient-53);}.cls-70{fill:url(#linear-gradient-54);}.cls-71{fill:url(#linear-gradient-55);}.cls-72{fill:url(#linear-gradient-56);}.cls-73{fill:url(#linear-gradient-57);}.cls-74{fill:url(#linear-gradient-58);}.cls-75{fill:url(#linear-gradient-59);}.cls-76{fill:url(#linear-gradient-60);}.cls-77{fill:url(#linear-gradient-61);}.cls-78{fill:url(#linear-gradient-62);}.cls-79{fill:url(#linear-gradient-63);}.cls-80{fill:url(#linear-gradient-64);}.cls-81{fill:url(#linear-gradient-65);}.cls-83{fill:url(#linear-gradient-66);}.cls-84{fill:url(#linear-gradient-67);}.cls-85{fill:url(#linear-gradient-68);}.cls-86{fill:url(#linear-gradient-69);}.cls-87{fill:url(#linear-gradient-70);}.cls-88{fill:url(#linear-gradient-71);}.cls-89{fill:url(#linear-gradient-72);}.cls-90{fill:url(#linear-gradient-73);}.cls-91{fill:url(#linear-gradient-74);}.cls-92{fill:url(#linear-gradient-75);}.cls-93{fill:url(#linear-gradient-76);}.cls-94{fill:url(#linear-gradient-77);}.cls-95{fill:url(#linear-gradient-78);}.cls-96{fill:url(#linear-gradient-79);}.cls-97{fill:url(#linear-gradient-80);}.cls-98{fill:url(#linear-gradient-81);}.cls-99{fill:url(#linear-gradient-82);}.cls-100{fill:url(#linear-gradient-83);}.cls-101{fill:url(#linear-gradient-84);}.cls-102{fill:url(#linear-gradient-85);}.cls-103{fill:url(#linear-gradient-86);}.cls-104{fill:url(#linear-gradient-87);}.cls-105{fill:url(#linear-gradient-88);}.cls-106{fill:url(#linear-gradient-89);}.cls-107{fill:url(#linear-gradient-90);}.cls-108{fill:url(#linear-gradient-91);}.cls-109{fill:url(#linear-gradient-92);}.cls-110{fill:url(#linear-gradient-93);}.cls-111{fill:url(#linear-gradient-94);}.cls-112{fill:url(#linear-gradient-95);}.cls-113{fill:url(#linear-gradient-96);}.cls-114{fill:url(#linear-gradient-97);}.cls-115{fill:url(#linear-gradient-98);}.cls-116{fill:url(#linear-gradient-99);}.cls-117{fill:url(#linear-gradient-100);}.cls-118{fill:url(#linear-gradient-101);}.cls-119{fill:url(#linear-gradient-102);}.cls-120{fill:url(#linear-gradient-103);}.cls-121{fill:url(#linear-gradient-104);}.cls-122{fill:url(#linear-gradient-105);}.cls-123{fill:url(#linear-gradient-106);}.cls-124{fill:url(#linear-gradient-107);}.cls-125{fill:url(#linear-gradient-108);}.cls-126{fill:url(#linear-gradient-109);}.cls-127{fill:url(#linear-gradient-110);}.cls-128{fill:url(#linear-gradient-111);}.cls-129{fill:url(#linear-gradient-112);}.cls-130{fill:url(#linear-gradient-113);}.cls-131{fill:url(#linear-gradient-114);}.cls-132,.cls-141{opacity:0.7;}.cls-132{fill:url(#radial-gradient-10);}.cls-133{fill:url(#linear-gradient-115);}.cls-134{fill:url(#linear-gradient-116);}.cls-135{opacity:0.3;}.cls-136{fill:url(#linear-gradient-117);}.cls-138{fill:url(#radial-gradient-11);}.cls-140{fill:url(#linear-gradient-118);}.cls-142{fill:url(#radial-gradient-12);}.cls-143{fill:url(#radial-gradient-13);}.cls-144{fill:url(#linear-gradient-119);}.cls-145{fill:url(#linear-gradient-120);}</style><radialGradient id="radial-gradient" cx="87.7959" cy="102.3664" r="88.6942" gradientUnits="userSpaceOnUse"><stop offset="0.5376"/><stop offset="0.774" stop-color="#fff"/><stop offset="0.7895" stop-color="#d7d7d7"/><stop offset="0.8138" stop-color="#9f9f9f"/><stop offset="0.8382" stop-color="#6e6e6e"/><stop offset="0.8622" stop-color="#474747"/><stop offset="0.8857" stop-color="#282828"/><stop offset="0.9085" stop-color="#121212"/><stop offset="0.9304" stop-color="#040404"/><stop offset="0.9503"/></radialGradient><linearGradient id="linear-gradient" x1="51.5474" y1="18.7914" x2="51.5474" y2="34.909" gradientUnits="userSpaceOnUse"><stop offset="0.1779" stop-color="#d5d0ca"/><stop offset="0.2476" stop-color="#e8e4e1"/><stop offset="0.3129" stop-color="#fcfbfb"/><stop offset="0.3178" stop-color="#f6f4f3"/><stop offset="0.3375" stop-color="#e2dedb"/><stop offset="0.3596" stop-color="#d3cdc8"/><stop offset="0.3852" stop-color="#c8c1ba"/><stop offset="0.4175" stop-color="#c2bab2"/><stop offset="0.4785" stop-color="#c0b8b0"/><stop offset="0.546" stop-color="#d8d4ce"/></linearGradient><radialGradient id="radial-gradient-2" cx="53.9386" cy="34.2773" r="17.9565" gradientUnits="userSpaceOnUse"><stop offset="0.4247" stop-color="#b3aaa0"/><stop offset="0.5951" stop-color="#b3aaa0"/><stop offset="0.6002" stop-color="#b3aaa0"/><stop offset="0.6328" stop-color="#bab2a9"/><stop offset="0.686" stop-color="#cec7c1"/><stop offset="0.7528" stop-color="#edeae8"/><stop offset="0.7643" stop-color="#f3f1f0"/><stop offset="0.9748" stop-color="#fff"/></radialGradient><linearGradient id="linear-gradient-2" x1="52.5581" y1="-4.113" x2="52.5581" y2="36.9148" xlink:href="#linear-gradient"/><radialGradient id="radial-gradient-3" cx="48.1492" cy="24.4554" r="28.1505" gradientUnits="userSpaceOnUse"><stop offset="0.4247" stop-color="#b3aaa0"/><stop offset="0.4855" stop-color="#b6ada4"/><stop offset="0.543" stop-color="#bfb7af"/><stop offset="0.5992" stop-color="#cec8c2"/><stop offset="0.6543" stop-color="#e4e0dd"/><stop offset="0.6861" stop-color="#f3f1f0"/><stop offset="0.9748" stop-color="#fff"/></radialGradient><linearGradient id="linear-gradient-4" x1="137.0922" y1="43.4624" x2="137.0922" y2="51.0962" gradientUnits="userSpaceOnUse"><stop offset="0.0197" stop-color="#d5d0ca"/><stop offset="0.1482" stop-color="#d3cec8"/><stop offset="0.1944" stop-color="#cec8c1"/><stop offset="0.2273" stop-color="#c4beb6"/><stop offset="0.2538" stop-color="#b7aea5"/><stop offset="0.2596" stop-color="#b3aaa0"/><stop offset="0.4451" stop-color="#c3bcb4"/><stop offset="0.7174" stop-color="#d8d4ce"/><stop offset="1" stop-color="#c0b8b0"/></linearGradient><linearGradient id="linear-gradient-6" x1="86.1116" y1="51.6024" x2="86.1116" y2="75.804" gradientUnits="userSpaceOnUse"><stop offset="0.0197" stop-color="#d5d0ca"/><stop offset="0.1449" stop-color="#d6d1cc"/><stop offset="0.1465" stop-color="#d6d1cc"/><stop offset="0.1854" stop-color="#d8d3ce"/><stop offset="0.2021" stop-color="#dddad5"/><stop offset="0.2088" stop-color="#e2dfdb"/><stop offset="0.2815" stop-color="#e0ddd9"/><stop offset="0.3238" stop-color="#d9d5d0"/><stop offset="0.3581" stop-color="#cec9c2"/><stop offset="0.3882" stop-color="#beb7ae"/><stop offset="0.3901" stop-color="#bdb6ad"/><stop offset="0.4446" stop-color="#c1bbb2"/><stop offset="0.5131" stop-color="#cec8c2"/><stop offset="0.5888" stop-color="#e2dfdb"/><stop offset="0.6378" stop-color="#f3f1f0"/><stop offset="0.6912" stop-color="#f2efee"/><stop offset="0.7105" stop-color="#eceae7"/><stop offset="0.7241" stop-color="#e3e0dc"/><stop offset="0.7334" stop-color="#d8d4ce"/><stop offset="1" stop-color="#c0b8b0"/></linearGradient><linearGradient id="linear-gradient-7" x1="86.1116" y1="51.6022" x2="86.1116" y2="75.8079" xlink:href="#linear-gradient-4"/><radialGradient id="radial-gradient-4" cx="71.6848" cy="47.1134" r="38.2821" gradientUnits="userSpaceOnUse"><stop offset="0.2298" stop-color="#b3aaa0"/><stop offset="0.3358" stop-color="#b6ada4"/><stop offset="0.4362" stop-color="#bfb7af"/><stop offset="0.5344" stop-color="#cec8c2"/><stop offset="0.6306" stop-color="#e4e0dd"/><stop offset="0.6861" stop-color="#f3f1f0"/><stop offset="0.9748" stop-color="#fff"/></radialGradient><linearGradient id="linear-gradient-8" x1="163.4415" y1="25.2549" x2="163.4415" y2="31.6316" gradientUnits="userSpaceOnUse"><stop offset="0.2062" stop-color="#b6aea4"/><stop offset="0.3962" stop-color="#bdb5ad"/><stop offset="0.4499" stop-color="#c0b8b0"/><stop offset="0.5847" stop-color="#d5d0ca"/><stop offset="0.7067" stop-color="#bfb8af"/><stop offset="0.8038" stop-color="#b3aaa0"/><stop offset="0.8565" stop-color="#b5aca2"/><stop offset="0.8819" stop-color="#bbb3aa"/><stop offset="0.9014" stop-color="#c5beb7"/><stop offset="0.9029" stop-color="#c6bfb8"/><stop offset="1" stop-color="#bdb5ac"/></linearGradient><linearGradient id="linear-gradient-9" x1="109.817" x2="109.817" y2="6.0416" gradientUnits="userSpaceOnUse"><stop offset="0.0197" stop-color="#d5d0ca"/><stop offset="0.1855" stop-color="#eae8e5"/><stop offset="0.2286" stop-color="#e9e6e3"/><stop offset="0.2441" stop-color="#e3e0dc"/><stop offset="0.2551" stop-color="#dad6d1"/><stop offset="0.264" stop-color="#ccc6c0"/><stop offset="0.2716" stop-color="#bbb3aa"/><stop offset="0.2743" stop-color="#b3aaa0"/><stop offset="0.4152" stop-color="#bcb4ab"/><stop offset="0.6626" stop-color="#d3cec8"/><stop offset="0.938" stop-color="#f3f1f0"/><stop offset="0.9523" stop-color="#e5e1de"/><stop offset="0.9832" stop-color="#cac3bd"/><stop offset="1" stop-color="#c0b8b0"/></linearGradient><linearGradient id="linear-gradient-10" x1="170.6137" y1="5.6213" x2="170.6137" y2="25.1012" gradientUnits="userSpaceOnUse"><stop offset="0.0197" stop-color="#d5d0ca"/><stop offset="0.0714" stop-color="#d6d2cc"/><stop offset="0.09" stop-color="#dcd8d3"/><stop offset="0.1032" stop-color="#e5e2de"/><stop offset="0.1139" stop-color="#f3f1ef"/><stop offset="0.1192" stop-color="#fcfbfb"/><stop offset="0.2839" stop-color="#faf9f9"/><stop offset="0.3432" stop-color="#f5f3f2"/><stop offset="0.3855" stop-color="#ece9e7"/><stop offset="0.4196" stop-color="#dedad6"/><stop offset="0.4489" stop-color="#ccc6c0"/><stop offset="0.4744" stop-color="#b7aea5"/><stop offset="0.4785" stop-color="#b3aaa0"/><stop offset="0.6359" stop-color="#b4aca2"/><stop offset="0.6927" stop-color="#bab2a9"/><stop offset="0.7331" stop-color="#c3bcb4"/><stop offset="0.7658" stop-color="#d1cbc5"/><stop offset="0.7934" stop-color="#e2dedb"/><stop offset="0.8132" stop-color="#f3f1f0"/><stop offset="0.8737" stop-color="#f2efee"/><stop offset="0.8955" stop-color="#eceae7"/><stop offset="0.911" stop-color="#e3e0dc"/><stop offset="0.9215" stop-color="#d8d4ce"/><stop offset="1" stop-color="#c0b8b0"/></linearGradient><radialGradient id="radial-gradient-5" cx="73.6055" cy="33.6451" r="86.634" gradientUnits="userSpaceOnUse"><stop offset="0.8808" stop-color="#b3aaa0"/><stop offset="0.937" stop-color="#f3f1f0"/><stop offset="0.9871" stop-color="#fff"/></radialGradient><linearGradient id="linear-gradient-11" x1="91.8212" y1="3.9427" x2="91.8212" y2="40.5818" xlink:href="#linear-gradient-10"/><radialGradient id="radial-gradient-6" cx="184.2372" cy="16.0747" r="142.8469" gradientUnits="userSpaceOnUse"><stop offset="0.431" stop-color="#fff"/><stop offset="0.6638" stop-color="#f3f1f0"/><stop offset="0.6837" stop-color="#e2dedb"/><stop offset="0.7114" stop-color="#d1cbc5"/><stop offset="0.7443" stop-color="#c3bcb4"/><stop offset="0.7849" stop-color="#bab2a9"/><stop offset="0.8418" stop-color="#b4aca2"/><stop offset="1" stop-color="#b3aaa0"/></radialGradient><linearGradient id="linear-gradient-12" x1="76.4652" y1="17.6305" x2="76.4652" y2="32.0609" xlink:href="#linear-gradient-10"/><radialGradient id="radial-gradient-7" cx="79.6568" cy="-2.431" r="33.7298" gradientUnits="userSpaceOnUse"><stop offset="0.653" stop-color="#fff"/><stop offset="0.7237" stop-color="#f3f1f0"/><stop offset="0.884" stop-color="#b3aaa0"/></radialGradient><radialGradient id="radial-gradient-8" cx="69.9207" cy="18.9211" r="12.208" gradientUnits="userSpaceOnUse"><stop offset="0.5426" stop-color="#fff"/><stop offset="1" stop-color="#a49a8e"/></radialGradient><linearGradient id="linear-gradient-13" x1="109.1836" y1="10.2353" x2="109.1836" y2="44.2939" xlink:href="#linear-gradient-10"/><linearGradient id="linear-gradient-14" x1="113.5012" y1="17.3506" x2="113.5012" y2="23.8301" gradientUnits="userSpaceOnUse"><stop offset="0" stop-color="#c0b8b0"/><stop offset="0.0606" stop-color="#bab2a9"/><stop offset="0.1826" stop-color="#b5aca2"/><stop offset="0.5215" stop-color="#b3aaa0"/><stop offset="0.5256" stop-color="#b7aea5"/><stop offset="0.5511" stop-color="#ccc6c0"/><stop offset="0.5804" stop-color="#dedad6"/><stop offset="0.6145" stop-color="#ece9e7"/><stop offset="0.6568" stop-color="#f5f3f2"/><stop offset="0.7161" stop-color="#faf9f9"/><stop offset="0.8808" stop-color="#fcfbfb"/><stop offset="0.8861" stop-color="#f3f1ef"/><stop offset="0.8968" stop-color="#e5e2de"/><stop offset="0.91" stop-color="#dcd8d3"/><stop offset="0.9286" stop-color="#d6d2cc"/><stop offset="0.9803" stop-color="#d5d0ca"/></linearGradient><linearGradient id="linear-gradient-15" x1="113.7955" y1="31.1539" x2="113.7955" y2="37.7087" xlink:href="#linear-gradient-14"/><radialGradient id="radial-gradient-9" cx="104.2832" cy="52.6499" r="4.7978" gradientUnits="userSpaceOnUse"><stop offset="0" stop-color="#d5d0cb"/><stop offset="0.0736" stop-color="#d0cbc5"/><stop offset="0.3877" stop-color="#c0b9b1"/><stop offset="0.6985" stop-color="#b6aea4"/><stop offset="1" stop-color="#b3aaa0"/></radialGradient><linearGradient id="linear-gradient-16" y1="73.5997" x2="71.0331" y2="73.5997" gradientUnits="userSpaceOnUse"><stop offset="0" stop-color="#521603"/><stop offset="1" stop-color="#a03205"/></linearGradient><mask id="mask" x="0" y="28.9713" width="71.0331" height="89.2568" maskUnits="userSpaceOnUse"><path class="cls-1" d="M62.37,56.2991c3.2741-.9178,5.0333,1.51,7.0468,1.7649,2.0189.2514,1.7643.7546,1.2612-4.403-.5035-5.1635-3.8993-6.5467-6.67-8.4353-2.7722-1.8862-6.1678-1.1311-8.4359-7.05C53.31,32.26,51.296,29.4891,47.6459,28.9884c-3.6512-.5032-20.14,10.1972-26.5566,17.9988C14.6679,54.79,2.2109,77.07.4469,97.079c-1.7618,20.0124,1.764,17.9988,9.1867,20.0124,7.4285,2.0136,27.1869,1.0092,35.4956-.3759s7.4225-3.5239,6.7972-9.821c-.63-6.2891-4.53-17.4931-4.4079-25.7955C47.6459,72.788,51.1689,59.45,62.37,56.2991Z"/></mask><linearGradient id="linear-gradient-17" x1="17.9745" y1="80.0002" x2="50.1189" y2="80.0002" gradientUnits="userSpaceOnUse"><stop offset="0" stop-color="#530903"/><stop offset="1" stop-color="#a01d05"/></linearGradient><linearGradient id="linear-gradient-18" x1="15.7544" y1="83.9973" x2="49.4217" y2="83.9973" xlink:href="#linear-gradient-17"/><linearGradient id="linear-gradient-19" x1="14.3107" y1="85.7997" x2="45.9156" y2="85.7997" xlink:href="#linear-gradient-17"/><linearGradient id="linear-gradient-20" x1="12.7709" y1="88.0463" x2="43.556" y2="88.0463" xlink:href="#linear-gradient-17"/><linearGradient id="linear-gradient-21" x1="10.0707" y1="90.4392" x2="39.4623" y2="90.4392" xlink:href="#linear-gradient-17"/><linearGradient id="linear-gradient-22" x1="7.9001" y1="92.9173" x2="35.6909" y2="92.9173" xlink:href="#linear-gradient-17"/><linearGradient id="linear-gradient-23" x1="7.3901" y1="96.5189" x2="31.6453" y2="96.5189" xlink:href="#linear-gradient-17"/><linearGradient id="linear-gradient-24" x1="5.402" y1="98.2949" x2="27.6133" y2="98.2949" xlink:href="#linear-gradient-17"/><linearGradient id="linear-gradient-25" x1="3.8469" y1="100.8348" x2="23.8525" y2="100.8348" xlink:href="#linear-gradient-17"/><linearGradient id="linear-gradient-26" x1="3.3415" y1="103.3743" x2="20.5482" y2="103.3743" xlink:href="#linear-gradient-17"/><linearGradient id="linear-gradient-27" x1="2.1873" y1="105.7319" x2="17.5252" y2="105.7319" xlink:href="#linear-gradient-17"/><linearGradient id="linear-gradient-28" x1="1.8472" y1="107.8363" x2="13.1746" y2="107.8363" xlink:href="#linear-gradient-17"/><linearGradient id="linear-gradient-29" x1="2.3401" y1="110.3608" x2="9.9923" y2="110.3608" xlink:href="#linear-gradient-17"/><linearGradient id="linear-gradient-30" x1="21.1156" y1="73.1462" x2="48.3702" y2="73.1462" xlink:href="#linear-gradient-17"/><linearGradient id="linear-gradient-31" x1="24.6897" y1="67.133" x2="47.8781" y2="67.133" xlink:href="#linear-gradient-17"/><linearGradient id="linear-gradient-32" x1="28.4724" y1="60.6669" x2="46.6881" y2="60.6669" xlink:href="#linear-gradient-17"/><linearGradient id="linear-gradient-33" x1="32.2238" y1="55.7016" x2="46.5089" y2="55.7016" xlink:href="#linear-gradient-17"/><linearGradient id="linear-gradient-34" x1="36.6639" y1="52.1111" x2="47.2363" y2="52.1111" xlink:href="#linear-gradient-17"/><linearGradient id="linear-gradient-35" x1="40.6419" y1="49.1993" x2="48.9173" y2="49.1993" xlink:href="#linear-gradient-17"/><linearGradient id="linear-gradient-36" x1="45.8599" y1="47.2487" x2="50.5782" y2="47.2487" xlink:href="#linear-gradient-17"/><linearGradient id="linear-gradient-37" x1="49.9079" y1="47.7489" x2="52.2863" y2="47.7489" xlink:href="#linear-gradient-17"/><linearGradient id="linear-gradient-38" x1="53.0136" y1="47.7655" x2="55.6157" y2="47.7655" xlink:href="#linear-gradient-17"/><linearGradient id="linear-gradient-39" x1="56.6936" y1="49.7961" x2="58.9011" y2="49.7961" xlink:href="#linear-gradient-17"/><linearGradient id="linear-gradient-40" x1="60.5438" y1="50.4551" x2="62.002" y2="50.4551" xlink:href="#linear-gradient-17"/><linearGradient id="linear-gradient-41" x1="63.2801" y1="50.6279" x2="64.7206" y2="50.6279" xlink:href="#linear-gradient-17"/><linearGradient id="linear-gradient-42" x1="66.4727" y1="51.9572" x2="67.4229" y2="51.9572" xlink:href="#linear-gradient-17"/><linearGradient id="linear-gradient-43" x1="2.0334" y1="104.3883" x2="4.5417" y2="104.3883" xlink:href="#linear-gradient-17"/><linearGradient id="linear-gradient-44" x1="1.0665" y1="107.2688" x2="2.4159" y2="107.2688" xlink:href="#linear-gradient-17"/><linearGradient id="linear-gradient-45" x1="3.8785" y1="101.2851" x2="7.1999" y2="101.2851" xlink:href="#linear-gradient-17"/><linearGradient id="linear-gradient-46" x1="6.2034" y1="96.7017" x2="10.0829" y2="96.7017" xlink:href="#linear-gradient-17"/><linearGradient id="linear-gradient-47" x1="8.8752" y1="93.3343" x2="13.2089" y2="93.3343" xlink:href="#linear-gradient-17"/><linearGradient id="linear-gradient-48" x1="11.9746" y1="90.2401" x2="15.7413" y2="90.2401" xlink:href="#linear-gradient-17"/><linearGradient id="linear-gradient-49" x1="14.8887" y1="86.4652" x2="18.2891" y2="86.4652" xlink:href="#linear-gradient-17"/><linearGradient id="linear-gradient-50" x1="18.3266" y1="82.2763" x2="21.1892" y2="82.2763" xlink:href="#linear-gradient-17"/><linearGradient id="linear-gradient-51" x1="22.0799" y1="79.8588" x2="25.8991" y2="79.8588" xlink:href="#linear-gradient-17"/><linearGradient id="linear-gradient-52" x1="25.9024" y1="78.5029" x2="30.1219" y2="78.5029" xlink:href="#linear-gradient-17"/><linearGradient id="linear-gradient-53" x1="29.3212" y1="77.138" x2="33.112" y2="77.138" xlink:href="#linear-gradient-17"/><linearGradient id="linear-gradient-54" x1="32.9861" y1="75.2985" x2="37.5168" y2="75.2985" xlink:href="#linear-gradient-17"/><linearGradient id="linear-gradient-55" x1="37.1976" y1="74.3563" x2="42.1782" y2="74.3563" xlink:href="#linear-gradient-17"/><linearGradient id="linear-gradient-56" x1="41.0021" y1="73.6361" x2="47.0505" y2="73.6361" xlink:href="#linear-gradient-17"/><linearGradient id="linear-gradient-57" x1="44.6309" y1="74.0777" x2="49.7624" y2="74.0777" xlink:href="#linear-gradient-17"/><linearGradient id="linear-gradient-58" x1="47.3326" y1="100.1126" x2="49.442" y2="100.1126" xlink:href="#linear-gradient-17"/><linearGradient id="linear-gradient-59" x1="47.0688" y1="55.9546" x2="53.3907" y2="55.9546" xlink:href="#linear-gradient-17"/><linearGradient id="linear-gradient-60" x1="50.1508" y1="53.299" x2="55.3034" y2="53.299" xlink:href="#linear-gradient-17"/><linearGradient id="linear-gradient-61" x1="54.1539" y1="50.986" x2="57.8011" y2="50.986" xlink:href="#linear-gradient-17"/><linearGradient id="linear-gradient-62" x1="56.6914" y1="51.2209" x2="60.2156" y2="51.2209" xlink:href="#linear-gradient-17"/><linearGradient id="linear-gradient-63" x1="59.6958" y1="51.1781" x2="62.4584" y2="51.1781" xlink:href="#linear-gradient-17"/><linearGradient id="linear-gradient-64" x1="62.1983" y1="52.2417" x2="64.8819" y2="52.2417" xlink:href="#linear-gradient-17"/><linearGradient id="linear-gradient-65" x1="65.5901" y1="52.6232" x2="67.6406" y2="52.6232" xlink:href="#linear-gradient-17"/><linearGradient id="linear-gradient-66" x1="18.7316" y1="79.4955" x2="50.8764" y2="79.4955" gradientUnits="userSpaceOnUse"><stop offset="0" stop-color="#985f5b"/><stop offset="1" stop-color="#dc6b5c"/></linearGradient><linearGradient id="linear-gradient-67" x1="16.509" y1="83.4936" x2="50.1783" y2="83.4936" xlink:href="#linear-gradient-66"/><linearGradient id="linear-gradient-68" x1="15.0677" y1="85.297" x2="46.6717" y2="85.297" xlink:href="#linear-gradient-66"/><linearGradient id="linear-gradient-69" x1="13.5237" y1="87.5423" x2="44.3122" y2="87.5423" xlink:href="#linear-gradient-66"/><linearGradient id="linear-gradient-70" x1="10.8292" y1="89.937" x2="40.2204" y2="89.937" xlink:href="#linear-gradient-66"/><linearGradient id="linear-gradient-71" x1="8.6549" y1="92.4141" x2="36.4477" y2="92.4141" xlink:href="#linear-gradient-66"/><linearGradient id="linear-gradient-72" x1="8.1452" y1="96.0158" x2="32.4016" y2="96.0158" xlink:href="#linear-gradient-66"/><linearGradient id="linear-gradient-73" x1="6.1567" y1="97.7918" x2="28.3684" y2="97.7918" xlink:href="#linear-gradient-66"/><linearGradient id="linear-gradient-74" x1="4.6045" y1="100.3318" x2="24.6078" y2="100.3318" xlink:href="#linear-gradient-66"/><linearGradient id="linear-gradient-75" x1="4.0971" y1="102.8703" x2="21.3041" y2="102.8703" xlink:href="#linear-gradient-66"/><linearGradient id="linear-gradient-76" x1="2.9406" y1="105.2263" x2="18.2773" y2="105.2263" xlink:href="#linear-gradient-66"/><linearGradient id="linear-gradient-77" x1="2.6041" y1="107.3325" x2="13.9297" y2="107.3325" xlink:href="#linear-gradient-66"/><linearGradient id="linear-gradient-78" x1="3.094" y1="109.8558" x2="10.7472" y2="109.8558" xlink:href="#linear-gradient-66"/><linearGradient id="linear-gradient-79" x1="21.8676" y1="72.643" x2="49.1279" y2="72.643" xlink:href="#linear-gradient-66"/><linearGradient id="linear-gradient-80" x1="25.447" y1="66.6306" x2="48.6298" y2="66.6306" xlink:href="#linear-gradient-66"/><linearGradient id="linear-gradient-81" x1="29.229" y1="60.1646" x2="47.4456" y2="60.1646" xlink:href="#linear-gradient-66"/><linearGradient id="linear-gradient-82" x1="32.9808" y1="55.1978" x2="47.2655" y2="55.1978" xlink:href="#linear-gradient-66"/><linearGradient id="linear-gradient-83" x1="37.4184" y1="51.6063" x2="47.9947" y2="51.6063" xlink:href="#linear-gradient-66"/><linearGradient id="linear-gradient-84" x1="41.3938" y1="48.6953" x2="49.6703" y2="48.6953" xlink:href="#linear-gradient-66"/><linearGradient id="linear-gradient-85" x1="46.6162" y1="46.7458" x2="51.3352" y2="46.7458" xlink:href="#linear-gradient-66"/><linearGradient id="linear-gradient-86" x1="50.6628" y1="47.245" x2="53.0438" y2="47.245" xlink:href="#linear-gradient-66"/><linearGradient id="linear-gradient-87" x1="53.7694" y1="47.2609" x2="56.3714" y2="47.2609" xlink:href="#linear-gradient-66"/><linearGradient id="linear-gradient-88" x1="57.4523" y1="49.2921" x2="59.6547" y2="49.2921" xlink:href="#linear-gradient-66"/><linearGradient id="linear-gradient-89" x1="61.3013" y1="49.951" x2="62.7589" y2="49.951" xlink:href="#linear-gradient-66"/><linearGradient id="linear-gradient-90" x1="64.0329" y1="50.1246" x2="65.4736" y2="50.1246" xlink:href="#linear-gradient-66"/><linearGradient id="linear-gradient-91" x1="67.2245" y1="51.4545" x2="68.1776" y2="51.4545" xlink:href="#linear-gradient-66"/><linearGradient id="linear-gradient-92" x1="2.7906" y1="103.8838" x2="5.2971" y2="103.8838" xlink:href="#linear-gradient-66"/><linearGradient id="linear-gradient-93" x1="1.8241" y1="106.7647" x2="3.1735" y2="106.7647" xlink:href="#linear-gradient-66"/><linearGradient id="linear-gradient-94" x1="4.6329" y1="100.7828" x2="7.9564" y2="100.7828" xlink:href="#linear-gradient-66"/><linearGradient id="linear-gradient-95" x1="6.9573" y1="96.1992" x2="10.8357" y2="96.1992" xlink:href="#linear-gradient-66"/><linearGradient id="linear-gradient-96" x1="9.6306" y1="92.8309" x2="13.965" y2="92.8309" xlink:href="#linear-gradient-66"/><linearGradient id="linear-gradient-97" x1="12.7281" y1="89.7362" x2="16.4988" y2="89.7362" xlink:href="#linear-gradient-66"/><linearGradient id="linear-gradient-98" x1="15.6423" y1="85.9618" x2="19.0421" y2="85.9618" xlink:href="#linear-gradient-66"/><linearGradient id="linear-gradient-99" x1="19.0793" y1="81.7737" x2="21.9443" y2="81.7737" xlink:href="#linear-gradient-66"/><linearGradient id="linear-gradient-100" x1="22.833" y1="79.3551" x2="26.6564" y2="79.3551" xlink:href="#linear-gradient-66"/><linearGradient id="linear-gradient-101" x1="26.6569" y1="78.0001" x2="30.8777" y2="78.0001" xlink:href="#linear-gradient-66"/><linearGradient id="linear-gradient-102" x1="30.0787" y1="76.6332" x2="33.8688" y2="76.6332" xlink:href="#linear-gradient-66"/><linearGradient id="linear-gradient-103" x1="33.7427" y1="74.7954" x2="38.2688" y2="74.7954" xlink:href="#linear-gradient-66"/><linearGradient id="linear-gradient-104" x1="37.9517" y1="73.8531" x2="42.9367" y2="73.8531" xlink:href="#linear-gradient-66"/><linearGradient id="linear-gradient-105" x1="41.7597" y1="73.1315" x2="47.8086" y2="73.1315" xlink:href="#linear-gradient-66"/><linearGradient id="linear-gradient-106" x1="45.3881" y1="73.5731" x2="50.5154" y2="73.5731" xlink:href="#linear-gradient-66"/><linearGradient id="linear-gradient-107" x1="48.0847" y1="99.6081" x2="50.1985" y2="99.6081" xlink:href="#linear-gradient-66"/><linearGradient id="linear-gradient-108" x1="47.8265" y1="55.4509" x2="54.1471" y2="55.4509" xlink:href="#linear-gradient-66"/><linearGradient id="linear-gradient-109" x1="50.9036" y1="52.7957" x2="56.056" y2="52.7957" xlink:href="#linear-gradient-66"/><linearGradient id="linear-gradient-110" x1="54.9115" y1="50.4826" x2="58.5542" y2="50.4826" xlink:href="#linear-gradient-66"/><linearGradient id="linear-gradient-111" x1="57.45" y1="50.7181" x2="60.9681" y2="50.7181" xlink:href="#linear-gradient-66"/><linearGradient id="linear-gradient-112" x1="60.4492" y1="50.6752" x2="63.2109" y2="50.6752" xlink:href="#linear-gradient-66"/><linearGradient id="linear-gradient-113" x1="62.956" y1="51.7378" x2="65.6345" y2="51.7378" xlink:href="#linear-gradient-66"/><linearGradient id="linear-gradient-114" x1="66.3428" y1="52.1197" x2="68.3978" y2="52.1197" xlink:href="#linear-gradient-66"/><radialGradient id="radial-gradient-10" cx="26.4362" cy="87.8295" r="20.0764" gradientUnits="userSpaceOnUse"><stop offset="0.292" stop-color="#fff"/><stop offset="0.681" stop-color="#bc6900"/><stop offset="1" stop-color="#603100"/></radialGradient><linearGradient id="linear-gradient-115" x1="8.1674" y1="72.9155" x2="29.8151" y2="72.9155" gradientUnits="userSpaceOnUse"><stop offset="0.1192" stop-color="#fcfbfb"/><stop offset="0.2839" stop-color="#faf9f9"/><stop offset="0.3432" stop-color="#f5f3f2"/><stop offset="0.3855" stop-color="#ece9e7"/><stop offset="0.4196" stop-color="#dedad6"/><stop offset="0.4489" stop-color="#ccc6c0"/><stop offset="0.4744" stop-color="#b7aea5"/><stop offset="0.4785" stop-color="#b3aaa0"/><stop offset="0.5057" stop-color="#c3bcb4"/><stop offset="0.5426" stop-color="#d5d0ca"/><stop offset="0.607" stop-color="#d8d3ce"/><stop offset="0.6675" stop-color="#e1ddd9"/><stop offset="0.7263" stop-color="#f0edec"/><stop offset="0.7363" stop-color="#f3f1f0"/><stop offset="0.8056" stop-color="#f2efee"/><stop offset="0.8306" stop-color="#eceae7"/><stop offset="0.8483" stop-color="#e3e0dc"/><stop offset="0.8604" stop-color="#d8d4ce"/><stop offset="1" stop-color="#c0b8b0"/></linearGradient><linearGradient id="linear-gradient-116" x1="24.7511" y1="72.9155" x2="25.6748" y2="72.9155" gradientUnits="userSpaceOnUse"><stop offset="0.2596" stop-color="#b3aaa0"/><stop offset="0.4451" stop-color="#c3bcb4"/><stop offset="0.7174" stop-color="#d8d4ce"/><stop offset="1" stop-color="#c0b8b0"/></linearGradient><linearGradient id="linear-gradient-117" x1="35.7699" y1="84.5171" x2="30.2319" y2="34.9268" xlink:href="#linear-gradient-16"/><radialGradient id="radial-gradient-11" cx="45.0874" cy="-19.5484" r="83.8148" gradientUnits="userSpaceOnUse"><stop offset="0.501"/><stop offset="0.639" stop-color="#98513f"/><stop offset="0.734" stop-color="#e0e0e0"/><stop offset="0.8431" stop-color="#b97564"/><stop offset="0.9263" stop-color="#691904"/><stop offset="1"/></radialGradient><linearGradient id="linear-gradient-118" x1="35.7092" y1="84.3404" x2="30.1407" y2="34.4763" gradientUnits="userSpaceOnUse"><stop offset="0.4374" stop-color="#521603"/><stop offset="1" stop-color="#a03205"/></linearGradient><radialGradient id="radial-gradient-12" cx="-9.6218" cy="36.2339" r="79.4515" gradientUnits="userSpaceOnUse"><stop offset="0.6972" stop-color="#e0e0e0"/><stop offset="0.8233" stop-color="#a03205"/><stop offset="1" stop-color="#521603"/></radialGradient><radialGradient id="radial-gradient-13" cx="-20.6976" cy="46.9037" fx="12.769532359131297" fy="15.971869062252157" r="78.5824" gradientUnits="userSpaceOnUse"><stop offset="0.2578" stop-color="#e0e0e0"/><stop offset="0.3501" stop-color="#b97564"/><stop offset="0.5399" stop-color="#691904"/><stop offset="1"/></radialGradient><linearGradient id="linear-gradient-119" x1="134.6756" y1="23.7504" x2="134.6756" y2="17.3506" gradientUnits="userSpaceOnUse"><stop offset="0" stop-color="#c0b8b0"/><stop offset="0.0606" stop-color="#bab2a9"/><stop offset="0.1826" stop-color="#b5aca2"/><stop offset="0.5215" stop-color="#b3aaa0"/><stop offset="0.5327" stop-color="#b7aea5"/><stop offset="0.5834" stop-color="#c4beb6"/><stop offset="0.6462" stop-color="#cec8c1"/><stop offset="0.7347" stop-color="#d3cec8"/><stop offset="0.9803" stop-color="#d5d0ca"/></linearGradient><linearGradient id="linear-gradient-120" x1="134.5932" y1="37.7087" x2="134.5932" y2="31.1539" xlink:href="#linear-gradient-119"/></defs><g class="cls-2"><g id="Layer_2" data-name="Layer 2"><g id="Layer_1-2" data-name="Layer 1"><path class="cls-3" d="M61.7007,20.2184a9.9982,9.9982,0,0,1-6.2116.8405c-3.7783-.5861-6.7154-1.4268-9.1439,0-2.433,1.43-4.8672,3.2749-4.95,5.7916s3.6057,1.8449,10.57,1.51C58.93,28.0232,61.5345,19.97,61.7007,20.2184Z"/><g class="cls-4"><path class="cls-5" d="M61.7007,20.2184a9.9982,9.9982,0,0,1-6.2116.8405c-3.7783-.5861-6.7154-1.4268-9.1439,0-2.433,1.43-4.8672,3.2749-4.95,5.7916s3.6057,1.8449,10.57,1.51C58.93,28.0232,61.5345,19.97,61.7007,20.2184Z"/></g><path class="cls-6" d="M69.5052,7.8006s-1.8476,1.2583-3.3569.9237-1.931-2.5167-3.0208-2.7658c-1.0948-.2539-2.1846.67-3.5228,1.1729-1.3446.5031-2.9373.7523-6.6322-1.1729-3.69-1.9329-12.7834-2.0713-16.3616.1662-2.0137,1.2612-.753,1.5958.5032,1.4273,1.2607-.1661,8.8941-.5037,13.6788,2.5991a21.1792,21.1792,0,0,1,9.06,11.5777S70.4294,19.4637,69.5052,7.8006Z"/><path class="cls-6" d="M69.5052,7.8006s-1.8476,1.2583-3.3569.9237-1.931-2.5167-3.0208-2.7658c-1.0948-.2539-2.1846.67-3.5228,1.1729-1.3446.5031-2.9373.7523-6.6322-1.1729-3.69-1.9329-12.7834-2.0713-16.3616.1662-2.0137,1.2612-.753,1.5958.5032,1.4273,1.2607-.1661,8.8941-.5037,13.6788,2.5991a21.1792,21.1792,0,0,1,9.06,11.5777S70.4294,19.4637,69.5052,7.8006Z"/><g class="cls-4"><path class="cls-7" d="M69.5052,7.8006s-1.8476,1.2583-3.3569.9237-1.931-2.5167-3.0208-2.7658c-1.0948-.2539-2.1846.67-3.5228,1.1729-1.3446.5031-2.9373.7523-6.6322-1.1729-3.69-1.9329-12.7834-2.0713-16.3616.1662-2.0137,1.2612-.753,1.5958.5032,1.4273,1.2607-.1661,8.8941-.5037,13.6788,2.5991a21.1792,21.1792,0,0,1,9.06,11.5777S70.4294,19.4637,69.5052,7.8006Z"/></g><path class="cls-8" d="M131.0078,51.4319s6.7974-.1632,7.8-.1632c1.0061,0,3.0248-1.5959,4.3689-7.3043l-9.9017-.0825Z"/><g class="cls-9"><path class="cls-8" d="M136.5443,46.9017c1.5115-.2487,3.3588-.1661,5.8981-.3847a24.6806,24.6806,0,0,0,.7341-2.5526l-9.9017-.0825-2.267,7.55s.88-.0194,2.0574-.0471C133.5917,49.2634,134.0616,47.3165,136.5443,46.9017Z"/></g><path class="cls-10" d="M99.2093,52.61S89.811,55.7134,89.64,63.18a13.5531,13.5531,0,0,0,5.6239,11.4939c.5866.4206-.336,1.3444-1.8476.7576-1.5093-.5886-6.294-4.1125-7.5489-7.2124-1.2607-3.1086-2.1019-3.8634-4.7847-4.45a15.4459,15.4459,0,0,1-8.0539-4.6133s-.2546-4.87,1.3382-5.874C75.9658,52.2726,99.2093,52.61,99.2093,52.61Z"/><g class="cls-9"><path class="cls-11" d="M79.5343,54.8665c4.9652-.7325,10.1-.2181,15.1486.0912A19.5167,19.5167,0,0,1,99.2093,52.61s-23.2435-.3375-24.8424.6721c-1.5928,1.0038-1.3382,5.874-1.3382,5.874a18.6065,18.6065,0,0,0,2.191,1.9387C75.556,58.31,76.4961,55.3176,79.5343,54.8665Z"/></g><g class="cls-4"><path class="cls-12" d="M74.0852,59.4549a8.78,8.78,0,0,1,2.44,1.4492,16.5394,16.5394,0,0,0,3.7883,1.9693c1.71.6693,3.9611.387,4.7127,2.1544,1.428,3.3549,3.1025,7.8875,9.4082,9.7407C90.646,71.74,87.4933,65.94,89.2631,60.6332c1.2937-3.8611,4.4467-6.1291,8.1376-7.2626a16.7094,16.7094,0,0,1,1.8086-.7605s-23.2435-.3375-24.8424.6721c-1.5811.9986-1.3442,5.8074-1.3382,5.874.0114.224.5866.57.7692.6581C73.8853,59.6511,73.9571,59.4606,74.0852,59.4549Z"/></g><path class="cls-13" d="M147.79,31.7153H175.391c1.0121,0,3.8621-2.2652,3.6947-7.719H148.21Z"/><path class="cls-14" d="M72.4361,5.5386s4.736-.8219,5.8743-4.5332c.3382-1.09,1.0123-1.0038,3.021-1.0038h58.0665c1.5116,0,1.4281.5831,1.9313,1.3414a9.05,9.05,0,0,0,5.8686,4.6986Z"/><path class="cls-15" d="M147.2872,25.7612h45.14c1.1732,0,1.7638.1631,3.3568-2.6333a15.9753,15.9753,0,0,0,2.2631-10.36c-.4195-4.7711-3.0206-7.4037-3.7781-7.5669-.752-.1661-51.18,0-51.18,0Z"/><g class="cls-4"><path class="cls-16" d="M162.587,5.1509c-10.47.0195-19.4979.05-19.4979.05l4.1981,20.56h.8235l-.3206,5.9541h18.4687A45.8321,45.8321,0,0,0,162.587,5.1509Z"/></g><path class="cls-17" d="M144.4332,4.9494H70.7617c-.842,0-2.18,1.679-2.85,3.3574C60.401,27.08,41.5605,26.2614,40.0512,26.43s-3.3578-1.6789-3.524,2.6827c-.1652,4.3642-2.5167,11.917-2.5167,11.917l19.8022,7.8045,17.12,9.8185c-.1708,7.296-.1708,12.75,4.6136,17.4485s11.411,6.1256,23.0763,5.0363c12.6-1.1812,15.8579-11.66,17.4449-18.9614,1.5987-7.2984,3.7784-8.3081,5.6259-9.0632a20.4406,20.4406,0,0,1,7.6381-.9238c2.9374.0831,2.18-.4206,3.186-3.1029,1.0084-2.6856,2.6828-3.6953,4.1944-3.6953h7.2129s5.7073-6.3775,5.7073-18.9609A46.2986,46.2986,0,0,0,144.4332,4.9494ZM110.1171,64.9447c-.4217,5.7861-3.44,15.438-19.1328,14.18S73.87,69.4778,73.6153,64.0239c-.2545-5.4568.5032-10.5756,6.7157-10.5756,4.025,0,18.7052-.0834,22.816.6717C107.2614,54.8781,110.5308,59.1562,110.1171,64.9447Z"/><path class="cls-18" d="M144.4332,4.9494H70.7617c-.842,0-2.18,1.679-2.85,3.3574C60.401,27.08,41.5605,26.2614,40.0512,26.43s-3.3578-1.6789-3.524,2.6827c-.1652,4.3642-2.5167,11.917-2.5167,11.917l19.8022,7.8045,17.12,9.8185c-.1708,7.296-.1708,12.75,4.6136,17.4485s11.411,6.1256,23.0763,5.0363c12.6-1.1812,15.8579-11.66,17.4449-18.9614,1.5987-7.2984,3.7784-8.3081,5.6259-9.0632a20.4406,20.4406,0,0,1,7.6381-.9238c2.9374.0831,2.18-.4206,3.186-3.1029,1.0084-2.6856,2.6828-3.6953,4.1944-3.6953h7.2129s5.7073-6.3775,5.7073-18.9609A46.2986,46.2986,0,0,0,144.4332,4.9494ZM110.1171,64.9447c-.4217,5.7861-3.44,15.438-19.1328,14.18S73.87,69.4778,73.6153,64.0239c-.2545-5.4568.5032-10.5756,6.7157-10.5756,4.025,0,18.7052-.0834,22.816.6717C107.2614,54.8781,110.5308,59.1562,110.1171,64.9447Z"/><path class="cls-19" d="M84.356,22.1517s-3.5667-.3759-4.701-.5032-1.6049-.5147-2.6828-2.0994c-1.2609-1.8445-5.5365-4.0265-7.804,2.2651s2.5161,10.49,5.0337,10.2357c2.5157-.2487,2.3893-2.5608,4.6563-3.1859A43.9734,43.9734,0,0,1,84.14,27.8572Z"/><g class="cls-4"><path class="cls-20" d="M84.356,22.1517s-3.5667-.3759-4.701-.5032-1.6049-.5147-2.6828-2.0994c-1.2609-1.8445-5.5365-4.0265-7.804,2.2651s2.5161,10.49,5.0337,10.2357c2.5157-.2487,2.3893-2.5608,4.6563-3.1859A43.9734,43.9734,0,0,1,84.14,27.8572Z"/></g><g class="cls-21"><path class="cls-22" d="M81.0925,22.1906c-.713-.0748-1.4047-.15-1.7852-.1909-1.0123-.1136-1.4338-.4589-2.39-1.8669-1.1227-1.6429-4.9283-3.5816-6.9482,2.0159-2.0182,5.6007,2.2412,9.3345,4.4812,9.1076,2.24-.2214,2.1292-2.2762,4.1416-2.8347.6585-.1855,1.3892-.34,2.0689-.4731C82.0773,27.6775,82.26,22.3179,81.0925,22.1906Z"/></g><path class="cls-23" d="M132.9778,34.6555a3.5788,3.5788,0,0,1,3.2307-3.5016,28.9236,28.9236,0,0,0,.1709-3.0474,39.6661,39.6661,0,0,0-.2546-4.3561,3.5585,3.5585,0,0,1-2.8984-3.4461,3.4967,3.4967,0,0,1,1.6648-2.9537,15.3339,15.3339,0,0,0-1.1559-3.0868A3.4211,3.4211,0,0,0,130.46,12.375H87.167c-2.0145,0-4.7847.6309-5.0393,4.4059,0,0,3.0248,2.013.1264,4.7817,0,0-.5032,8.684-.1264,11.4527,0,0,3.1529,2.14-.1222,4.9115,0,0,.1222,5.7861,2.3892,6.2921,2.2691.5032,39.1789,1.4075,45.0593.7548,1.1343-.1269,2.0629.2826,3.5238-2.6441a32.8551,32.8551,0,0,0,1.8359-4.6209A3.5024,3.5024,0,0,1,132.9778,34.6555Z"/><g class="cls-24"><path class="cls-25" d="M85.0261,43.56c-2.2671-.5-2.3952-6.2139-2.3952-6.2139,3.2754-2.7328.1281-4.8455.1281-4.8455-.3767-2.7328.1264-11.3089.1264-11.3089,2.8927-2.73-.1264-4.7182-.1264-4.7182a4.1735,4.1735,0,0,1,2.2166-3.7778c-1.4161.4783-2.677,1.5957-2.8479,4.0848,0,0,3.0248,2.013.1264,4.7817,0,0-.5032,8.684-.1264,11.4527,0,0,3.1529,2.14-.1222,4.9115,0,0,.1222,5.7861,2.3892,6.2921,2.2691.5032,39.1789,1.4075,45.0593.7548.8857-.0991,1.6472.1247,2.6379-1.1754a3.1916,3.1916,0,0,1-2.0065.5061C124.2049,44.9493,87.2931,44.0558,85.0261,43.56Z"/></g><path class="cls-26" d="M134.8912,17.3506H98.12c-3.0268,0-7.242.8159-7.242,3.078,0,2.268,2.2029,3.4015,7.1078,3.4015,4.9129,0,38.14-.08,38.14-.08S135.6663,20.5694,134.8912,17.3506Z"/><path class="cls-27" d="M136.2085,31.1539H96.73c-2.0125,0-5.348.791-5.348,2.9319s3.147,3.5233,5.6026,3.5233c2.45,0,37.8287.1,37.8287.1A36.136,36.136,0,0,0,136.2085,31.1539Z"/><g class="cls-28"><path class="cls-29" d="M106.0454,50.1982a1.8252,1.8252,0,1,1-1.8262-1.8249A1.8247,1.8247,0,0,1,106.0454,50.1982Z"/></g><path class="cls-25" d="M104.4311,47.9525a2.0364,2.0364,0,0,0-2.0361,2.0355c0,.0335.01.0694.01.1054a1.8216,1.8216,0,1,1,1.9194,1.9194c.0328.0028.0718.0082.1068.0082a2.0343,2.0343,0,0,0,0-4.0685Z"/><path class="cls-30" d="M62.37,56.2991c3.2741-.9178,5.0333,1.51,7.0468,1.7649,2.0189.2514,1.7643.7546,1.2612-4.403-.5035-5.1635-3.8993-6.5467-6.67-8.4353-2.7722-1.8862-6.1678-1.1311-8.4359-7.05C53.31,32.26,51.296,29.4891,47.6459,28.9884c-3.6512-.5032-20.14,10.1972-26.5566,17.9988C14.6679,54.79,2.2109,77.07.4469,97.079c-1.7618,20.0124,1.764,17.9988,9.1867,20.0124,7.4285,2.0136,27.1869,1.0092,35.4956-.3759s7.4225-3.5239,6.7972-9.821c-.63-6.2891-4.53-17.4931-4.4079-25.7955C47.6459,72.788,51.1689,59.45,62.37,56.2991Z"/><g class="cls-31"><g class="cls-32"><path class="cls-33" d="M44.57,94.3939c-2.5991-4.8483-6.0727-9.0522-9.53-13.3089a121.8209,121.8209,0,0,1-9.48-13.6567c-1.5716-2.58-3.0752-5.21-4.3925-7.9317A62.5054,62.5054,0,0,1,18.1549,51.57a.0936.0936,0,0,0-.18.0417c.7525,5.1771,3.4627,10.1969,6.03,14.6833a109.3772,109.3772,0,0,0,9.2868,13.8946c3.4346,4.3116,7.0634,8.4766,9.9511,13.1865,2.76,4.5138,5.8075,9.6442,6.5426,14.9621a.1667.1667,0,0,0,.3323-.0273C49.631,103.3017,46.899,98.7443,44.57,94.3939Z"/><path class="cls-34" d="M33.1373,84.1941A138.8685,138.8685,0,0,1,23.0367,70.9518c-3.12-4.8812-4.9779-10.3216-7.0254-15.7036a.1334.1334,0,0,0-.2506.0912,63.8413,63.8413,0,0,0,6.026,14.8435A107.1793,107.1793,0,0,0,31.66,83.5773c7.3286,8.85,13.9167,18.1179,17.4846,29.1582.06.1827.32.08.2707-.0994C46.7659,101.9161,40.04,92.59,33.1373,84.1941Z"/><path class="cls-35" d="M45.9031,112.4645a85.8166,85.8166,0,0,0-7.1963-13.9969c-3.0362-4.5579-6.4437-8.8584-9.812-13.173a92.9053,92.9053,0,0,1-8.6234-12.4182,92.1351,92.1351,0,0,1-5.8356-13.914c-.0282-.0772-.1438-.036-.1225.0476A81.4633,81.4633,0,0,0,19.35,72.42,75.628,75.628,0,0,0,27.735,84.9625c3.3548,4.3286,6.7623,8.6233,9.8937,13.1174a61.6388,61.6388,0,0,1,4.33,7.2383c1.2339,2.4225,2.3237,4.9255,3.6678,7.29C45.7148,112.7662,45.9751,112.6277,45.9031,112.4645Z"/><path class="cls-36" d="M43.5469,113.4766c-3.3685-10.274-10.2881-18.9-17.1059-27.0868-2.9118-3.4982-5.76-7.0881-8.3221-10.8524-2.605-3.8333-5.1081-8.2781-5.1653-13.0346,0-.1189-.1719-.1-.1777.0137-.1157,4.19,1.7862,8.1314,3.8774,11.6464a90.0667,90.0667,0,0,0,8.0978,11.2118c3.5958,4.3364,7.2246,8.66,10.427,13.3a78.59,78.59,0,0,1,8.0862,14.9013A.15.15,0,0,0,43.5469,113.4766Z"/><path class="cls-37" d="M33.2635,102.4585c-2.8984-4.1794-5.8956-8.2972-9.0215-12.3132-5.7685-7.4144-12.7882-14.5385-13.9557-24.2876a.1082.1082,0,0,0-.2156.0166c-.0107,4.1873,1.87,8.225,3.9717,11.7484a108.0688,108.0688,0,0,0,8.463,11.4109c3.2635,4.11,6.3834,8.3412,9.448,12.6062a66.1545,66.1545,0,0,1,4.0105,6.14,64.1932,64.1932,0,0,1,3.3345,7.2876.0859.0859,0,0,0,.16-.0611A41.5309,41.5309,0,0,0,33.2635,102.4585Z"/><path class="cls-38" d="M29.9727,104.8947c-2.71-3.8523-5.7307-7.4863-8.6311-11.2036a94.8251,94.8251,0,0,1-7.6528-11.0568A97.892,97.892,0,0,1,8.0911,70.5316a.099.099,0,0,0-.1855.0691A75.1292,75.1292,0,0,0,19.9,92.9694c2.7605,3.62,5.6636,7.1328,8.41,10.7665,1.3354,1.7678,2.6187,3.5764,3.9075,5.3791a16.6627,16.6627,0,0,1,3.1363,6.1013c.039.2132.376.1908.3323-.0247C34.9956,111.37,32.1523,107.995,29.9727,104.8947Z"/><path class="cls-39" d="M31.6377,117c-2.09-7.9623-7.08-14.5531-12.2433-20.77C14.3328,90.1429,9.2276,83.8813,7.5988,75.93c-.0224-.1332-.23-.122-.2069.0135,1.1529,7.6142,5.7792,13.7673,10.5337,19.5641,2.5,3.0427,5.05,6.046,7.2626,9.3071a68.2776,68.2776,0,0,1,6.1562,12.2876A.1554.1554,0,0,0,31.6377,117Z"/><path class="cls-40" d="M16.056,98.1023C11.7413,93.1632,6.1,87.51,5.5521,80.629a.0707.0707,0,0,0-.1408.0112c-.2631,6.3829,5.114,11.95,8.9409,16.4748,2.4069,2.8435,4.9449,5.5671,7.2517,8.4907a38.39,38.39,0,0,1,3.2356,4.7652,53.6594,53.6594,0,0,1,2.4837,5.5559.1513.1513,0,0,0,.2856-.0991C26.0625,108.8245,20.6025,103.3076,16.056,98.1023Z"/><path class="cls-41" d="M22.417,111.3277a34.7111,34.7111,0,0,0-2.2263-3.8994,49.2906,49.2906,0,0,0-5.716-6.649A81.8811,81.8811,0,0,1,8.268,93.9567a26.0771,26.0771,0,0,1-4.1816-8.3274c-.0446-.1326-.26-.086-.2379.05.9266,5.75,5.1023,10.327,8.9768,14.3841,4.5137,4.7206,9.2187,9.4723,10.8748,16.0049.0223.0912.1438.047.1495-.0307A10.0789,10.0789,0,0,0,22.417,111.3277Z"/><path class="cls-42" d="M12.8011,103.7719a60.1887,60.1887,0,0,1-4.9586-6.1426c-1.5968-2.29-2.8877-4.7488-4.2708-7.1654a.1255.1255,0,0,0-.2206.1133,46.3852,46.3852,0,0,0,8.3243,12.9294c1.6871,1.9082,3.4344,3.7556,5.0062,5.7662a22.1265,22.1265,0,0,1,3.6112,6.9832.1321.1321,0,0,0,.2545-.0553C19.92,111.2811,15.9782,107.26,12.8011,103.7719Z"/><path class="cls-43" d="M2.3935,95.3671a.1059.1059,0,0,0-.1991.0719c2.9208,8.3222,11.2507,12.8717,15.0843,20.6462.072.1438.2925.0742.2379-.0836C14.496,107.7658,5.7678,103.4512,2.3935,95.3671Z"/><path class="cls-44" d="M13.1633,114.3173c-1.0675-2.4389-3.1557-4.2067-5.0556-5.9988-2.2952-2.1708-3.9882-4.7458-6.0619-7.1046a.1085.1085,0,0,0-.1777.1243,45.2929,45.2929,0,0,0,4.9448,6.58c2.1078,2.1349,4.3806,4.043,6.1066,6.5267C13.0079,114.5719,13.2265,114.4641,13.1633,114.3173Z"/><path class="cls-45" d="M9.9444,114.0769c-2.6585-2.4282-5.5762-4.4583-7.3848-7.6664-.0661-.1163-.2652-.0112-.21.1078A20.0338,20.0338,0,0,0,9.7812,114.34C9.9357,114.4363,10.0659,114.19,9.9444,114.0769Z"/><path class="cls-46" d="M42.2192,85.7813c-2.7713-3.88-5.6083-7.7131-8.3467-11.6214-5.52-7.8932-10.7474-16.4748-12.4763-26.0936-.03-.1748-.3069-.1607-.2786.0243,1.2607,9.4033,6.1172,17.7778,11.4661,25.4361,2.7489,3.9352,5.719,7.7,8.5961,11.541a52.4818,52.4818,0,0,1,7.0023,13.22.0967.0967,0,0,0,.1825-.0636A48.2221,48.2221,0,0,0,42.2192,85.7813Z"/><path class="cls-47" d="M46.2908,85.7182c-1.0295-1.9388-2.1583-3.8367-3.2364-5.75-2.2844-4.06-4.8952-7.9345-7.4449-11.8285C33.148,64.3805,30.62,60.6,28.5014,56.6313a25.1827,25.1827,0,0,1-2.544-6.978c-.3981-1.9881-.62-3.9959-1.0955-5.9681-.0224-.0966-.1885-.0636-.1709.0384.3535,1.9746.52,3.98.8176,5.9657a22.9823,22.9823,0,0,0,1.87,6.0124,85.2147,85.2147,0,0,0,6.5935,11.1817c2.5554,3.9222,5.1391,7.8162,7.584,11.8091,2.2894,3.7426,5.0614,7.573,6.1171,11.8763.0284.1214.2052.069.2052-.0418A11.377,11.377,0,0,0,46.2908,85.7182Z"/><path class="cls-48" d="M41.34,70.1635c-1.7922-3.0892-3.861-5.9988-5.8087-8.9854a50.53,50.53,0,0,1-5.0333-9.4141,26.6483,26.6483,0,0,1-1.6014-11.2234.0912.0912,0,0,0-.18-.03c-1.1229,7.2042,1.7755,13.82,5.5042,19.8021,1.9526,3.1223,4.0989,6.12,6.0786,9.2207,2.3175,3.6453,4.2261,7.5033,6.2173,11.32.0556.1.1991.0137.1661-.0824C45.4886,77.056,43.2923,73.5244,41.34,70.1635Z"/><path class="cls-49" d="M38.5079,56.7391a77.8663,77.8663,0,0,1-4.1213-8.8029,18.5738,18.5738,0,0,1-1.3824-4.9119,39.6568,39.6568,0,0,0-.57-4.7158c-.033-.1161-.2215-.0719-.21.0471.2263,1.5575.2156,3.1363.304,4.7045a15.18,15.18,0,0,0,.9791,4.1955,63.9831,63.9831,0,0,0,3.8113,8.657c1.4989,2.8264,3.2414,5.5062,4.8451,8.2686a69.3194,69.3194,0,0,1,4.1874,8.9279.0821.0821,0,0,0,.1554-.0525C45.14,67.135,41.4343,61.9549,38.5079,56.7391Z"/><path class="cls-50" d="M44.4589,61.5268c-1.2053-2.6887-2.5934-5.2879-3.755-7.9931a60.2485,60.2485,0,0,1-2.7995-8.7864,17.3476,17.3476,0,0,1-.6137-5.4869,21.1888,21.1888,0,0,0,.039-4.619.1307.1307,0,0,0-.26.0223,31.24,31.24,0,0,1-.3537,4.97,14.3542,14.3542,0,0,0,.32,4.3174A54.8765,54.8765,0,0,0,39.7082,52.95c2.2233,5.6588,5.8075,10.695,7.2624,16.6549.039.155.2772.0944.2652-.0581C47.0153,66.6931,45.6158,64.09,44.4589,61.5268Z"/><path class="cls-51" d="M45.9915,57.5661c-1.0838-2.7687-2.1513-5.531-3.0091-8.3745-1.7306-5.7138-2.8487-12.13.3266-17.5288.0444-.0748-.0718-.1437-.1274-.0777-3.75,4.2373-2.5825,11.1322-1.3161,16.0853a73.9961,73.9961,0,0,0,3.0258,8.9472c1.3218,3.34,3.2024,6.5074,3.75,10.0973a.1383.1383,0,0,0,.2757-.0218C48.7794,63.4543,47.1474,60.5281,45.9915,57.5661Z"/><path class="cls-52" d="M49.4544,55.73c-.7081-2.744-1.4551-5.4792-2.03-8.261a46.196,46.196,0,0,1-.5526-15.9858.1073.1073,0,0,0-.2108-.039,37.97,37.97,0,0,0,.033,15.6508c.4808,2.5224,1.1335,5.0119,1.7979,7.49.3981,1.4909.9236,2.9673,1.1949,4.4829.2379,1.3274.299,2.68.6526,3.9882a.1231.1231,0,0,0,.238-.05A46.8137,46.8137,0,0,0,49.4544,55.73Z"/><path class="cls-53" d="M50.6657,47.8837A104.9613,104.9613,0,0,1,50.8977,34c.0059-.1326-.1873-.1768-.21-.036a59.2959,59.2959,0,0,0-.6869,13.0487c.2548,4.9007,1.5989,9.6188,2.0147,14.5031.0107.13.2263.146.2369.0112C52.5294,56.9465,51.0144,52.43,50.6657,47.8837Z"/><path class="cls-54" d="M54.444,48.7491a48.5393,48.5393,0,0,1-1.0071-9.9122c-.0059-.1408-.2382-.1491-.2488-.0082a29.8319,29.8319,0,0,0,.47,9.2735c.5586,2.8372,1.5649,5.6249,1.4929,8.5485-.005.1992.305.2044.338.0136C55.9533,53.9927,55.0354,51.3294,54.444,48.7491Z"/><path class="cls-55" d="M58.4653,49.9992c-.3828-2.3593-.9791-4.6739-1.5056-7.0027-.033-.152-.2817-.0936-.2653.0579.2653,2.2126.77,4.3892,1.1512,6.5825a27.697,27.697,0,0,1,.2874,6.7952c-.0115.2216.3206.3706.4043.1273C59.217,54.5071,58.7966,52.0734,58.4653,49.9992Z"/><path class="cls-56" d="M60.81,45.2146c-.0055-.13-.2213-.1381-.232-.0083-.2543,3.501,1.0064,6.8725.78,10.3934a.1741.1741,0,0,0,.343.0583C62.7127,52.3225,60.8545,48.5942,60.81,45.2146Z"/><path class="cls-57" d="M63.4762,46.8687c-.0387-.1273-.2215-.0554-.1932.0689.5526,2.4448.5856,4.9644,1.1112,7.4063.0447.1937.3323.1078.3263-.0719A32.5969,32.5969,0,0,0,63.4762,46.8687Z"/><path class="cls-58" d="M66.6572,49.053c-.034-.0989-.2049-.0659-.1825.0419.3593,1.9028.4137,3.792.63,5.7055.0167.1466.2486.169.265.0112A14.5409,14.5409,0,0,0,66.6572,49.053Z"/><path class="cls-59" d="M3.9456,104.7763c-.4235-3.38-1.0791-6.71-1.7318-10.0532-.0194-.1107-.1932-.1029-.18.0166.3924,3.2052.846,6.3994,1.2725,9.5994.4253,3.2248.4807,6.4855.8954,9.6966.0176.1155.1944.135.2051.0136A39.0517,39.0517,0,0,0,3.9456,104.7763Z"/><path class="cls-60" d="M1.1687,102.2785a.0513.0513,0,0,0-.102.0112c.2321,3.2936.5585,6.6456,1.1,9.9039a.1248.1248,0,0,0,.2486-.0194A93.9394,93.9394,0,0,0,1.1687,102.2785Z"/><path class="cls-61" d="M6.1194,101.5539C5.4638,96.59,4.609,91.65,4.0641,86.6689a.093.093,0,0,0-.1854.0137c.3126,4.8431.9625,9.6334,1.5958,14.4425.6469,4.9148.9877,9.8237,1.4045,14.76.0087.1249.2166.1413.2214.0112C7.4686,111.1373,6.741,106.2642,6.1194,101.5539Z"/><path class="cls-62" d="M9.5016,107.3093c-.4371-3.2883-.9073-6.5709-1.3414-9.86a187.67,187.67,0,0,1-1.74-19.6777c-.0058-.1327-.199-.1108-.199.0164A129.8241,129.8241,0,0,0,7.5269,97.0072c.4011,3.1252.84,6.2421,1.2608,9.3619.4127,3.05.5973,6.1231.8741,9.1848.0165.2049.3487.235.3652.0164A41.4193,41.4193,0,0,0,9.5016,107.3093Z"/><path class="cls-63" d="M12.3581,106.3384c-.4313-4.0624-.8819-8.1224-1.2967-12.1908-.4147-4.0629-.808-8.1342-1.151-12.205-.3371-4.0154-.4749-8.0453-.8012-12.0559a.1029.1029,0,0,0-.2051.0141c-.202,7.9128.6916,15.9494,1.4764,23.81q.5859,5.8622,1.2337,11.7125c.41,3.7891,1.0956,7.484.9178,11.3032-.0107.202.2826.1855.3263.0165C13.7461,113.4461,12.71,109.6546,12.3581,106.3384Z"/><path class="cls-64" d="M14.71,103.7028c-.407-4.5243-.69-9.0573-1.0315-13.5846-.3322-4.4-.612-8.8059-1.0238-13.2012-.4235-4.5159.1273-9.0652-.3517-13.576a.11.11,0,0,0-.2184.0167c.1553,4.3806-.2653,8.7612-.0437,13.1393.2234,4.4.62,8.7918.946,13.1841.337,4.53.6245,9.0632,1.02,13.5906.1942,2.2262.4535,4.4442.6468,6.6708.2021,2.3671.2857,4.7819.7053,7.1242a.1921.1921,0,0,0,.3826-.0335C15.6664,112.589,15.11,108.1282,14.71,103.7028Z"/><path class="cls-65" d="M16.5542,86.8351c-.1991-5.0391-1.0072-10.0311-1.06-15.0757-.0526-5.1022.6-10.1889.5012-15.3,0-.1468-.2158-.1249-.2216.0164-.133,4.9621-.8052,9.8846-.88,14.849-.0778,5.0391.6809,10.053.9324,15.0757.4954,10.0064,1.7425,19.9846,2.0436,29.9935.0059.26.3906.2185.3981-.0335C18.4842,106.5158,16.9523,96.6643,16.5542,86.8351Z"/><path class="cls-66" d="M19.7566,99.7535a152.9623,152.9623,0,0,1-.6974-17.0586c.0554-5.6918.371-11.3808.7751-17.0586C20.24,59.958,20.9124,54.286,21.1891,48.6c.005-.1271-.1823-.1685-.1989-.036-.8685,5.6065-1.3278,11.3119-1.7949,16.9621-.4625,5.5676-.77,11.1515-.8489,16.7376a155.5633,155.5633,0,0,0,.641,17.0645c.2573,2.6967.7081,5.3708.8663,8.073.1631,2.8293.0914,5.6612.1905,8.49.0114.2685.3981.2186.4058-.033.106-2.68.2022-5.3626.1137-8.0454C20.4694,105.1078,20.0335,102.4417,19.7566,99.7535Z"/><path class="cls-67" d="M22.7911,79.2351c-.1088-6.2062.1515-12.4318.5166-18.6268A133.3424,133.3424,0,0,1,25.8961,43.4c.03-.1467-.1823-.1769-.2213-.0388-3.3522,11.4254-3.6666,23.6106-3.5841,35.4368.0387,6.2362.675,12.4536,1.1618,18.6627.4923,6.27.4923,12.4924.6137,18.7705.0087.3152.4761.2656.4808-.0413.1438-6.1343.1088-12.169-.3534-18.2921C23.5175,91.6781,22.8929,85.4713,22.7911,79.2351Z"/><path class="cls-68" d="M30.1058,40.0817c.077-.1386-.1435-.2794-.232-.1468-2.7605,4.3618-3.3081,9.835-3.5123,14.8767-.1252,3.0757-.0971,6.1614-.2,9.237-.1212,3.5488-.2816,7.1-.2563,10.6534.0524,6.9173.8206,13.8309,1.3357,20.7263.2573,3.4511.4642,6.9056.5747,10.3653.12,3.706-.21,7.3567-.4262,11.0462a.2477.2477,0,0,0,.4876.0856c1.1948-6.4.6527-13.1283.2155-19.5778-.47-6.9254-1.1556-13.8368-1.4278-20.7788-.2623-6.6267.2526-13.2777.2963-19.9074C26.9909,51.0444,27.4086,45.1262,30.1058,40.0817Z"/><path class="cls-69" d="M31.5329,97.7623c-.4818-6.8564-.8355-13.7178-1.1725-20.5849a183.2618,183.2618,0,0,1-.0718-19.9545,154.8148,154.8148,0,0,1,2.8206-19.5312c.0281-.116-.1661-.185-.2049-.0631-2.0407,6.0484-2.7818,12.6667-3.258,19.0027a158.0041,158.0041,0,0,0-.0387,19.6166c.3323,6.8671.6914,13.7342,1.1559,20.5962.2272,3.3465.603,6.69.78,10.0393.1779,3.2223-.0824,6.4579.1168,9.68.0106.1825.32.2079.3323.0142.1989-2.9319.298-5.8882.2592-8.8253C32.2127,104.4246,31.7649,101.0784,31.5329,97.7623Z"/><path class="cls-70" d="M37.512,35.1838c.0447-.1913-.238-.2326-.2931-.0529-3.7667,12.6334-4.3535,26.2739-4.2147,39.372.072,6.74.4314,13.4687.8792,20.1949.4485,6.8284,1.4879,13.7956.9237,20.6376-.0224.2679.3757.351.42.0747a42.7288,42.7288,0,0,0,.1555-9.583c-.2543-3.416-.5265-6.8341-.7585-10.2551-.4585-6.718-.8072-13.4468-.93-20.1813a202.6826,202.6826,0,0,1,.648-20.568A151.1084,151.1084,0,0,1,37.512,35.1838Z"/><path class="cls-71" d="M39.5753,42.1446c.7245-3.1969,1.753-6.32,2.5991-9.4862.0341-.1244-.1711-.188-.21-.0661-.9791,2.9975-1.9795,5.993-2.7936,9.0409a51.0223,51.0223,0,0,0-1.4762,10.0085c-.4431,7.075-.5315,14.1636-.4868,21.2464q.05,10.8849.5469,21.7574c.3216,7.1186,1.085,14.2509.6422,21.3726a.1459.1459,0,0,0,.2874.05,35.1051,35.1051,0,0,0,.3817-9.3285c-.1659-3.5594-.3817-7.1192-.5526-10.6757q-.523-10.8645-.6147-21.7432c-.072-7.36-.005-14.725.3979-22.0759A59.7432,59.7432,0,0,1,39.5753,42.1446Z"/><path class="cls-72" d="M46.8434,31.2229c-3.2575,4.8458-3.6509,11.0573-4.3369,16.6827-.4195,3.3991-.89,6.7646-1.09,10.1861-.2156,3.7279-.2593,7.4591-.3591,11.1841-.2042,7.7495.1989,15.5128.4922,23.2512.1438,3.7638.2712,7.5276.3323,11.2948a104.7789,104.7789,0,0,1-.2051,12.0138c-.0271.2855.3984.368.4431.0806.99-7.2325.4584-14.7023.1932-21.9678-.2767-7.5863-.6244-15.17-.5866-22.7616a175.7833,175.7833,0,0,1,1.25-22.0365c.7913-6.046.9681-12.3711,4.06-17.8027C47.1027,31.2286,46.9154,31.11,46.8434,31.2229Z"/><path class="cls-73" d="M45.35,73.48c-.005-13.6625.7972-27.5872,4.4086-40.8156.039-.1548-.2215-.2349-.2709-.0859a92.3276,92.3276,0,0,0-3.762,19.4788c-.68,6.6345-.9559,13.333-1.0334,19.9958-.0835,7.2294.3651,14.45.5973,21.6689.1215,3.5924.2049,7.1989.0767,10.7941-.1261,3.6754-.53,7.3321-.7351,11.0021-.006.15.2106.1992.232.0417a113.02,113.02,0,0,0,1.1395-20.4139C45.8092,87.9221,45.3555,80.709,45.35,73.48Z"/><path class="cls-74" d="M49.1718,98.993c-.1768-1.8668-.3206-3.7419-.5032-5.6089a13.5494,13.5494,0,0,0-1.2219-5.0251c-.039-.0611-.1329-.0057-.1108.0584,1.1229,3.418,1.0568,7.0634,1.3774,10.6145a44.6274,44.6274,0,0,1-.5255,12.7581c-.0281.1185.1438.1408.1768.033C49.6643,107.558,49.5873,103.39,49.1718,98.993Z"/><path class="cls-75" d="M53.2318,37.3877c-2.2894,5.8686-3.3569,12.23-4.2972,18.4335-.9293,6.1449-2.13,12.3764-1.8143,18.6181.0107.1632.2817.18.2933.0112a85.4375,85.4375,0,0,1,.83-9.1347c.4915-3.12.8956-6.2563,1.36-9.3761a173.866,173.866,0,0,1,3.7843-18.5026C53.4146,37.3435,53.2705,37.2993,53.2318,37.3877Z"/><path class="cls-76" d="M55.0967,41.8071c-1.09,3.8445-2.1962,7.6831-3.1373,11.5665a50.337,50.337,0,0,0-1.8086,11.3719c0,.16.25.1632.272.0112.641-3.7837,1.1666-7.5446,2.0455-11.2919.9073-3.8832,1.9757-7.7248,2.8323-11.6187C55.329,41.7135,55.13,41.6858,55.0967,41.8071Z"/><path class="cls-77" d="M57.63,43.4473c-.9458,5.0308-2.7439,9.8981-3.4741,14.9654a.1632.1632,0,0,0,.3214.0549c1.2994-4.89,2.8983-9.9259,3.3238-14.9868C57.8066,43.3671,57.6464,43.334,57.63,43.4473Z"/><path class="cls-78" d="M60.0076,45.433a72.3173,72.3173,0,0,0-3.3132,11.4723c-.0327.1519.2109.2349.2653.0824,1.3228-3.722,2.28-7.6636,3.253-11.4934C60.2408,45.3778,60.0523,45.3224,60.0076,45.433Z"/><path class="cls-79" d="M62.2863,46.7219A36.7683,36.7683,0,0,1,59.71,55.4784a.1615.1615,0,0,0,.2933.1349A20.9087,20.9087,0,0,0,62.4584,46.73.087.087,0,0,0,62.2863,46.7219Z"/><path class="cls-80" d="M64.87,48.8652c-.0107-.1161-.2049-.13-.2156-.0084-.1167,2.4586-1.8532,4.3477-2.45,6.66-.0495.188.2436.2739.3216.1025C63.4208,53.5062,65.0362,51.2521,64.87,48.8652Z"/><path class="cls-81" d="M67.4361,50.342c-.7188,1.405-1.144,2.948-1.825,4.373-.1048.2125.2109.3481.3214.149a22.2971,22.2971,0,0,0,1.7028-4.4584C67.6743,50.2838,67.4867,50.24,67.4361,50.342Z"/></g><g class="cls-82"><path class="cls-83" d="M45.3274,93.89c-2.5993-4.8512-6.0727-9.0522-9.5306-13.3085a122.8527,122.8527,0,0,1-9.486-13.6595c-1.57-2.58-3.0692-5.2077-4.3863-7.9293A62.631,62.631,0,0,1,18.91,51.0666a.0916.0916,0,0,0-.1769.0389c.7471,5.18,3.458,10.2,6.027,14.6856a109.4475,109.4475,0,0,0,9.29,13.8976c3.43,4.3064,7.0634,8.4766,9.9454,13.1865,2.7663,4.5113,5.8132,9.6412,6.5438,14.96.0281.2128.3592.1909.3368-.0277C50.3841,102.8015,47.6565,98.2384,45.3274,93.89Z"/><path class="cls-84" d="M33.8948,83.6881a139.3409,139.3409,0,0,1-10.1-13.2369C20.67,65.5644,18.8163,60.13,16.767,54.745a.1335.1335,0,0,0-.2517.0884A63.8052,63.8052,0,0,0,22.5442,69.68a106.9709,106.9709,0,0,0,9.8734,13.3937c7.3236,8.8532,13.9112,18.118,17.4787,29.1584.0611.1826.3216.0806.2769-.0992C47.5244,101.41,40.7923,92.0869,33.8948,83.6881Z"/><path class="cls-85" d="M46.6609,111.9609a86.3959,86.3959,0,0,0-7.1963-13.9965c-3.0422-4.5584-6.4495-8.8583-9.8183-13.1758A92.2747,92.2747,0,0,1,21.0292,72.37,92.5145,92.5145,0,0,1,15.19,58.4622a.0637.0637,0,1,0-.1194.0442,81.5125,81.5125,0,0,0,5.0343,13.408,75.562,75.562,0,0,0,8.3852,12.542c3.3568,4.3311,6.7594,8.6233,9.89,13.1233a61.2165,61.2165,0,0,1,4.3369,7.2353c1.2326,2.4225,2.3174,4.9285,3.6665,7.2926C46.4733,112.2626,46.7269,112.1242,46.6609,111.9609Z"/><path class="cls-86" d="M44.3047,112.9731c-3.3688-10.2717-10.2882-18.9-17.1087-27.0894-2.9093-3.4958-5.763-7.0856-8.3194-10.85C16.2715,71.198,13.7656,66.7563,13.7112,62c0-.1194-.1777-.1-.1827.0137-.1136,4.19,1.7921,8.1309,3.8823,11.6489A89.8758,89.8758,0,0,0,25.5086,84.871c3.5958,4.3369,7.2189,8.66,10.4213,13.3032A78.7721,78.7721,0,0,1,44.023,113.073.15.15,0,0,0,44.3047,112.9731Z"/><path class="cls-87" d="M34.0212,101.955c-2.9031-4.182-5.8958-8.2969-9.0234-12.3128-5.77-7.415-12.7912-14.539-13.9529-24.2852a.1081.1081,0,0,0-.2156.0166c-.0165,4.1845,1.864,8.225,3.9679,11.7426a107.2382,107.2382,0,0,0,8.4657,11.4115c3.2638,4.1153,6.3834,8.341,9.4423,12.6091a66.1916,66.1916,0,0,1,4.0165,6.14,66.246,66.246,0,0,1,3.3352,7.2849.0848.0848,0,0,0,.16-.0554A41.6361,41.6361,0,0,0,34.0212,101.955Z"/><path class="cls-88" d="M30.73,104.3915c-2.7158-3.8522-5.7354-7.4868-8.6338-11.2041a94.4523,94.4523,0,0,1-7.65-11.0568A98.0707,98.0707,0,0,1,8.8429,70.0281a.0972.0972,0,0,0-.1825.0665A75.2079,75.2079,0,0,0,20.6522,92.4658c2.7662,3.6177,5.6706,7.13,8.4135,10.7669,1.3384,1.7673,2.6167,3.5789,3.91,5.3793a16.54,16.54,0,0,1,3.1316,6.1036c.0437.21.3758.1883.3368-.0272C35.7531,110.8663,32.91,107.492,30.73,104.3915Z"/><path class="cls-89" d="M32.3952,116.494c-2.0962-7.9623-7.0828-14.5531-12.2462-20.7676C15.0885,89.6393,9.9823,83.3781,8.3534,75.4212c-.0242-.1272-.2263-.1165-.2069.02,1.153,7.6111,5.78,13.7672,10.5367,19.5641,2.4975,3.0451,5.05,6.0459,7.2606,9.3065a68.4657,68.4657,0,0,1,6.1581,12.2852A.1554.1554,0,0,0,32.3952,116.494Z"/><path class="cls-90" d="M16.8087,97.5991C12.4971,92.66,6.8547,87.0041,6.3069,80.1253c-.0078-.0937-.135-.0772-.1408.0117-.2653,6.3824,5.1139,11.95,8.9419,16.4719,2.4029,2.8484,4.9476,5.567,7.2536,8.4989a38.167,38.167,0,0,1,3.2364,4.76,53.6181,53.6181,0,0,1,2.4777,5.5559.1527.1527,0,0,0,.2876-.102C26.817,108.3214,21.3612,102.8069,16.8087,97.5991Z"/><path class="cls-91" d="M23.1745,110.8246a34.9866,34.9866,0,0,0-2.229-3.9,49.09,49.09,0,0,0-5.7162-6.6456,81.3521,81.3521,0,0,1-6.2037-6.8254,26.0058,26.0058,0,0,1-4.1844-8.3281.1216.1216,0,0,0-.2351.05C5.53,90.9282,9.7055,95.5027,13.581,99.5573c4.5135,4.7235,9.2178,9.4751,10.8766,16.0073.0223.0912.144.05.147-.03A10.0511,10.0511,0,0,0,23.1745,110.8246Z"/><path class="cls-92" d="M13.5557,103.2687A60.0212,60.0212,0,0,1,8.6,97.1262c-1.5989-2.2929-2.8877-4.7488-4.2739-7.166-.0689-.1246-.2738-.0164-.22.1133a46.2354,46.2354,0,0,0,8.3271,12.9242c1.6871,1.9134,3.4345,3.761,5,5.7745a22.0335,22.0335,0,0,1,3.6174,6.9807.131.131,0,0,0,.2524-.0553C20.6745,110.7774,16.7357,106.7587,13.5557,103.2687Z"/><path class="cls-93" d="M3.1463,94.861a.1059.1059,0,0,0-.1991.0719c2.92,8.3246,11.2555,12.8719,15.0862,20.6511.0691.1388.2906.0665.235-.0884C15.2517,107.2622,6.52,102.9482,3.1463,94.861Z"/><path class="cls-94" d="M13.9181,113.8171c-1.0646-2.4424-3.1528-4.21-5.0528-6.0046C6.5672,105.6445,4.8771,103.07,2.8,100.71c-.0883-.1021-.2573.0057-.1738.1243a45.0844,45.0844,0,0,0,4.9391,6.58c2.1068,2.1351,4.3865,4.0465,6.1125,6.5272C13.7636,114.0629,13.9822,113.9609,13.9181,113.8171Z"/><path class="cls-95" d="M10.6962,113.5734c-2.6555-2.4284-5.5734-4.4555-7.3839-7.6666-.067-.1185-.2661-.0137-.2078.1083a20.0118,20.0118,0,0,0,7.4315,7.8185C10.69,113.9331,10.8235,113.687,10.6962,113.5734Z"/><path class="cls-96" d="M42.972,85.2781c-2.7713-3.88-5.61-7.7131-8.3418-11.6217-5.5258-7.8928-10.7473-16.472-12.4784-26.0938-.0328-.1772-.307-.1578-.2827.0249,1.2617,9.4,6.12,17.7807,11.4724,25.4332,2.7486,3.9353,5.7187,7.702,8.5958,11.5435a52.7612,52.7612,0,0,1,7.0023,13.22.0974.0974,0,0,0,.1828-.0669A48.2264,48.2264,0,0,0,42.972,85.2781Z"/><path class="cls-97" d="M47.0426,85.217c-1.0287-1.9412-2.1573-3.8387-3.2307-5.755-2.29-4.0573-4.8952-7.9317-7.45-11.8288-2.4622-3.7589-4.99-7.5338-7.1021-11.5026a25.4851,25.4851,0,0,1-2.5507-6.9832c-.3954-1.9859-.6169-3.9937-1.09-5.9659-.0214-.0966-.19-.06-.1709.0389.3517,1.9776.5146,3.98.8129,5.9629a22.9594,22.9594,0,0,0,1.8756,6.0153A85.1673,85.1673,0,0,0,34.73,66.38c2.55,3.9217,5.1381,7.8133,7.577,11.8064,2.2954,3.7448,5.0676,7.5753,6.1234,11.8792.0281.1213.2049.0718.1989-.0419A11.3243,11.3243,0,0,0,47.0426,85.217Z"/><path class="cls-98" d="M42.0977,69.66c-1.7979-3.0868-3.8667-5.9987-5.8132-8.9855a51.1569,51.1569,0,0,1-5.0333-9.4144A26.6211,26.6211,0,0,1,29.6523,40.04c.006-.1132-.1612-.152-.1768-.0331-1.1286,7.2019,1.7757,13.8227,5.5034,19.8021,1.9464,3.1224,4.099,6.1178,6.0727,9.2236,2.3232,3.6424,4.2321,7.5,6.2232,11.32.05.0966.1989.0107.1662-.0859C46.2461,76.5524,44.0451,73.0177,42.0977,69.66Z"/><path class="cls-99" d="M39.26,56.2389a79.5613,79.5613,0,0,1-4.1213-8.8059,18.5513,18.5513,0,0,1-1.3829-4.9119,38.7415,38.7415,0,0,0-.5692-4.7157c-.0283-.1161-.2215-.0748-.2052.0442.2275,1.56.21,3.1393.304,4.71a14.9522,14.9522,0,0,0,.9744,4.1927,64.73,64.73,0,0,0,3.8106,8.6568c1.4986,2.8236,3.2471,5.5064,4.8458,8.2692a67.58,67.58,0,0,1,4.1861,8.9274.0851.0851,0,0,0,.1614-.0525C45.8927,66.6348,42.1921,61.4547,39.26,56.2389Z"/><path class="cls-100" d="M45.2176,61.0231c-1.2065-2.6853-2.5943-5.2879-3.7619-7.9954a61.4621,61.4621,0,0,1-2.7983-8.7834,17.344,17.344,0,0,1-.6139-5.4876,20.4477,20.4477,0,0,0,.0377-4.6185.13.13,0,0,0-.2593.0218,30.6256,30.6256,0,0,1-.3544,4.9732,14.3716,14.3716,0,0,0,.3263,4.3141A54.9441,54.9441,0,0,0,40.46,52.4439c2.2233,5.6614,5.8132,10.7,7.2626,16.6552.0388.1572.2767.0966.272-.0554C47.7673,66.1919,46.3675,63.5868,45.2176,61.0231Z"/><path class="cls-101" d="M46.7493,57.0572c-1.0841-2.7628-2.1516-5.5258-3.0149-8.3693-1.7311-5.7133-2.8479-12.13.3323-17.5282.0445-.0749-.078-.1438-.1321-.0806-3.7513,4.24-2.584,11.1321-1.3173,16.0878a74.7824,74.7824,0,0,0,3.0255,8.9472c1.3278,3.3408,3.2024,6.5048,3.75,10.1a.139.139,0,0,0,.2769-.0223C49.5369,62.9506,47.9051,60.0274,46.7493,57.0572Z"/><path class="cls-102" d="M50.2122,55.2263c-.7141-2.7464-1.4552-5.4786-2.03-8.2585A46.2329,46.2329,0,0,1,47.6235,30.98a.1068.1068,0,0,0-.21-.0389,38.133,38.133,0,0,0,.0331,15.6507c.4865,2.5226,1.1335,5.0114,1.7969,7.49.4041,1.49.93,2.9645,1.2006,4.4855.2379,1.3278.2933,2.6769.6467,3.9853.039.1384.2548.086.2439-.05A47.4663,47.4663,0,0,0,50.2122,55.2263Z"/><path class="cls-103" d="M51.4232,47.38a104.7345,104.7345,0,0,1,.2275-13.8835c.01-.1331-.1887-.1773-.2111-.0388a59.6644,59.6644,0,0,0-.6855,13.0515c.26,4.9,1.6034,9.6213,2.0135,14.5026.0166.13.2322.1467.2426.0087C53.2871,56.4458,51.7719,51.9243,51.4232,47.38Z"/><path class="cls-104" d="M55.2018,48.2431A48.3735,48.3735,0,0,1,54.19,38.3367a.1269.1269,0,0,0-.25-.0171,30.054,30.054,0,0,0,.4762,9.2814c.5583,2.8353,1.5647,5.6229,1.4926,8.5465-.01.1992.305.2017.3383.0166C56.7054,53.492,55.7931,50.8259,55.2018,48.2431Z"/><path class="cls-105" d="M59.217,49.4961c-.3757-2.3564-.9733-4.6739-1.4988-7.0032-.0338-.1521-.2826-.0937-.265.0583.2593,2.2126.7624,4.3923,1.15,6.5826a27.9542,27.9542,0,0,1,.2876,6.7951c-.0166.2211.3157.37.3981.1245C59.9688,54.0069,59.5551,51.57,59.217,49.4961Z"/><path class="cls-106" d="M61.5618,44.7143c0-.133-.2205-.1437-.2265-.0117-.2543,3.5015,1.0074,6.87.78,10.3941a.1743.1743,0,0,0,.343.06C63.47,51.8189,61.6065,48.0964,61.5618,44.7143Z"/><path class="cls-107" d="M64.229,46.365c-.039-.1272-.2166-.0549-.1942.07.5536,2.4417.5866,4.9642,1.1169,7.4031.0387.1962.3322.1138.3216-.0689A32.3657,32.3657,0,0,0,64.229,46.365Z"/><path class="cls-108" d="M67.409,48.55c-.033-.102-.2049-.0661-.1825.0389.3593,1.9056.4207,3.7914.6363,5.7113.01.1461.2483.168.2593.0107A14.347,14.347,0,0,0,67.409,48.55Z"/><path class="cls-109" d="M4.7,104.2726C4.2768,100.89,3.6212,97.5632,2.9685,94.22c-.0213-.1106-.1933-.1054-.1768.0165.3924,3.2029.8471,6.4,1.2667,9.6024.4263,3.2223.4875,6.48.9013,9.6961a.1038.1038,0,0,0,.205.0087A39.1513,39.1513,0,0,0,4.7,104.2726Z"/><path class="cls-110" d="M1.9233,101.7753a.05.05,0,1,0-.099.0082c.2263,3.2968.5585,6.6429,1.1,9.9064a.1248.1248,0,0,0,.2486-.0194A94.5736,94.5736,0,0,0,1.9233,101.7753Z"/><path class="cls-111" d="M6.8742,101.0507c-.6586-4.9672-1.51-9.9068-2.0554-14.8877a.0932.0932,0,0,0-.1855.0164c.3157,4.8431.9635,9.6355,1.5939,14.4395.65,4.9178.99,9.824,1.4046,14.7634.0107.1244.2185.1438.2262.0112C8.2233,110.6313,7.4987,105.7605,6.8742,101.0507Z"/><path class="cls-112" d="M10.2534,106.8062c-.4371-3.2889-.9073-6.569-1.3386-9.8568a187.89,187.89,0,0,1-1.74-19.6807c-.0029-.13-.1961-.1108-.2011.0165a130.5443,130.5443,0,0,0,1.31,19.2184c.3982,3.1226.8412,6.24,1.2578,9.3625.4128,3.05.6,6.12.8723,9.187.0193.2045.3507.23.3652.017A41.0716,41.0716,0,0,0,10.2534,106.8062Z"/><path class="cls-113" d="M13.1129,105.8349c-.4313-4.0626-.8791-8.125-1.2967-12.191S11.009,85.51,10.669,81.4366c-.338-4.0159-.4758-8.0425-.808-12.0559-.0079-.1326-.1992-.11-.2021.0194-.1992,7.91.6886,15.9471,1.4773,23.81.3895,3.9052.81,7.81,1.2326,11.71.4129,3.7892,1.0986,7.4841.9189,11.3061-.0078.1992.2817.1825.3292.0107C14.5018,112.9459,13.4616,109.1509,13.1129,105.8349Z"/><path class="cls-114" d="M15.4644,103.2c-.409-4.5247-.6858-9.06-1.0286-13.5876-.338-4.4-.6138-8.8086-1.0238-13.1952-.4254-4.5165.1215-9.0686-.3535-13.5793a.11.11,0,0,0-.2186.0165c.1544,4.3781-.2691,8.7617-.0447,13.1394.2244,4.3981.6227,8.7952.949,13.1816.337,4.5331.62,9.0657,1.0179,13.5905.1934,2.2293.4527,4.45.6469,6.6759.204,2.3651.2846,4.7818.7052,7.1216a.1931.1931,0,0,0,.3846-.033C16.4212,112.0828,15.8626,107.6274,15.4644,103.2Z"/><path class="cls-115" d="M17.312,86.3291C17.11,81.2929,16.3,76.3008,16.25,71.2592c-.0506-5.111.5963-10.1919.5032-15.3029,0-.1468-.2216-.1245-.2244.0164-.135,4.959-.8052,9.8875-.8819,14.8495-.0719,5.039.6857,10.053.9343,15.0756.4983,10.006,1.7426,19.9847,2.0436,29.9931.006.26.39.2186.3954-.033C19.242,106.0151,17.7043,96.1636,17.312,86.3291Z"/><path class="cls-116" d="M20.5141,99.2528a152.0569,152.0569,0,0,1-.6992-17.0616c.0524-5.6942.3671-11.3778.7742-17.058.4068-5.6783,1.0751-11.3508,1.355-17.0368.0058-.1272-.18-.1689-.2021-.0359-.8653,5.6059-1.3248,11.309-1.7922,16.962-.4642,5.567-.7682,11.151-.8519,16.74a156.0509,156.0509,0,0,0,.6452,17.0611c.2564,2.6969.7069,5.3743.8654,8.076.16,2.8265.0884,5.6612.1932,8.4878.0116.268.3924.2214.4041-.03.105-2.6828.2019-5.3686.1107-8.0484C21.2281,104.6071,20.7883,101.9355,20.5141,99.2528Z"/><path class="cls-117" d="M23.5456,78.7315c-.1078-6.2058.1525-12.4317.5168-18.6239a133.4412,133.4412,0,0,1,2.5914-17.2107c.0281-.1466-.1825-.18-.2243-.0417-3.3538,11.428-3.6668,23.6135-3.586,35.4367.0407,6.2421.674,12.4566,1.1635,18.6652.4953,6.27.4953,12.4931.617,18.7682.0057.321.4728.2685.4818-.0389.1435-6.1343.1048-12.1691-.3606-18.2951C24.2733,91.1769,23.6506,84.9683,23.5456,78.7315Z"/><path class="cls-118" d="M30.8636,39.5755c.0717-.1354-.15-.2739-.2323-.1442-2.76,4.3617-3.3141,9.8351-3.518,14.88-.1224,3.0752-.0912,6.1561-.1962,9.2318-.1225,3.5539-.2827,7.1022-.2576,10.6533.0527,6.9171.8248,13.8367,1.3387,20.7287.2543,3.4515.4652,6.9055.575,10.3681.1165,3.7009-.2156,7.3539-.4285,11.0439-.0193.31.4285.406.4868.0855,1.1976-6.4029.65-13.1312.2126-19.5754-.4671-6.9307-1.15-13.84-1.4268-20.7815-.2593-6.6235.2546-13.2808.2983-19.9071C27.7493,50.5412,28.1641,44.62,30.8636,39.5755Z"/><path class="cls-119" d="M32.2844,97.2592c-.4808-6.8594-.8352-13.7236-1.1722-20.585A183.3105,183.3105,0,0,1,31.04,56.72,154.0853,154.0853,0,0,1,33.867,37.1885c.0221-.1214-.1664-.1855-.21-.0635-2.0356,6.0513-2.7827,12.6668-3.2528,19.0031A159.0578,159.0578,0,0,0,30.36,75.7447c.3311,6.8673.6907,13.7343,1.1558,20.5932.2323,3.35.608,6.6929.7859,10.0419.1708,3.2224-.0837,6.4553.1155,9.6772.0109.1855.3159.2079.3323.0165.1932-2.9314.298-5.8882.2592-8.8253C32.9655,103.9214,32.5176,100.5777,32.2844,97.2592Z"/><path class="cls-120" d="M38.264,34.68c.0447-.1908-.2369-.23-.2876-.0524C34.21,47.2611,33.6181,60.8987,33.7619,74c.0661,6.7371.4265,13.4717.874,20.1951.4538,6.8282,1.4932,13.795.93,20.6374-.0224.2709.3758.3482.4138.0717a42.04,42.04,0,0,0,.1552-9.58c-.2486-3.4186-.52-6.8337-.7578-10.2522-.4535-6.7234-.8079-13.452-.9234-20.1838A199.5572,199.5572,0,0,1,35.1,54.319,151.24,151.24,0,0,1,38.264,34.68Z"/><path class="cls-121" d="M40.3328,41.641c.7248-3.1965,1.7542-6.3221,2.6-9.4887.0328-.1214-.1778-.1826-.2111-.0636-.9791,3.0009-1.9852,5.9935-2.7981,9.0438a50.516,50.516,0,0,0-1.4717,10.006c-.4429,7.0751-.5313,14.1631-.4923,21.2459q.0582,10.8856.5536,21.7579c.3147,7.1186,1.0841,14.2511.641,21.3726a.1465.1465,0,0,0,.2886.05,35.1536,35.1536,0,0,0,.3758-9.3256c-.16-3.5619-.3758-7.1187-.5536-10.6757q-.523-10.8645-.614-21.7437c-.066-7.3616-.0059-14.727.3984-22.0778A60.31,60.31,0,0,1,40.3328,41.641Z"/><path class="cls-122" d="M47.5965,30.7167C44.3434,35.565,43.95,41.7741,43.26,47.4048c-.4147,3.3992-.8908,6.7623-1.0851,10.1832-.2205,3.7254-.2652,7.4592-.3593,11.1847-.2042,7.749.2,15.51.4922,23.2537.1391,3.7613.2653,7.5251.3264,11.2919a104.8052,104.8052,0,0,1-.2047,12.0141c-.0273.2851.4039.3652.4429.0777.9907-7.2266.4592-14.7.1942-21.9652-.277-7.5859-.6257-15.1694-.5809-22.7613A176.5249,176.5249,0,0,1,43.73,48.6471c.7964-6.0487.9686-12.3685,4.0649-17.8031C47.8615,30.7254,47.6729,30.6064,47.5965,30.7167Z"/><path class="cls-123" d="M46.1083,72.9765c-.0117-13.6654.7907-27.5876,4.4019-40.8183.0447-.1525-.2156-.2356-.2652-.0835a91.8767,91.8767,0,0,0-3.7667,19.4786c-.675,6.632-.951,13.3331-1.0287,19.9988-.0884,7.2241.36,14.4448.5976,21.6664.1155,3.5949.2046,7.1985.0764,10.7943-.1321,3.6754-.5359,7.3314-.7351,11.0019-.0107.1492.2106.1962.232.0437A113.4386,113.4386,0,0,0,46.755,94.6455C46.5667,87.4212,46.1083,80.2059,46.1083,72.9765Z"/><path class="cls-124" d="M49.9246,98.49c-.1769-1.8726-.3216-3.7424-.5032-5.6093a13.4224,13.4224,0,0,0-1.2229-5.0245c-.0331-.0671-.1322-.0058-.1108.0577,1.1228,3.4186,1.057,7.0634,1.3834,10.6145a44.6389,44.6389,0,0,1-.5315,12.7581c-.0224.119.1438.1413.1778.0336C50.4228,107.0548,50.3451,102.887,49.9246,98.49Z"/><path class="cls-125" d="M53.9893,36.8816c-2.2894,5.8716-3.3626,12.2328-4.2969,18.436-.93,6.145-2.13,12.3765-1.8143,18.6156.0057.1632.2816.1825.2873.0137a87.0289,87.0289,0,0,1,.8353-9.1377c.4927-3.1164.8956-6.25,1.361-9.3755a173.67,173.67,0,0,1,3.783-18.5A.0831.0831,0,0,0,53.9893,36.8816Z"/><path class="cls-126" d="M55.8545,41.304c-1.09,3.8469-2.202,7.6831-3.1363,11.5659a50.223,50.223,0,0,0-1.8146,11.3726c0,.1573.2486.166.2767.0107.6353-3.7832,1.1668-7.5471,2.0408-11.2919.9122-3.8829,1.9747-7.7273,2.8323-11.6184C56.0805,41.21,55.8873,41.1822,55.8545,41.304Z"/><path class="cls-127" d="M58.3818,42.9441c-.94,5.0333-2.7382,9.8982-3.4676,14.965a.16.16,0,0,0,.3147.0553c1.3053-4.8925,2.9041-9.9263,3.3248-14.99A.0873.0873,0,0,0,58.3818,42.9441Z"/><path class="cls-128" d="M60.7653,44.93a71.1229,71.1229,0,0,0-3.3121,11.4721c-.034.1515.21.235.2593.0854,1.322-3.7254,2.2846-7.6664,3.2528-11.4944A.1061.1061,0,0,0,60.7653,44.93Z"/><path class="cls-129" d="M63.0391,46.216a36.2521,36.2521,0,0,1-2.578,8.7587.1617.1617,0,0,0,.2935.1355,20.7557,20.7557,0,0,0,2.4563-8.8835A.0873.0873,0,0,0,63.0391,46.216Z"/><path class="cls-130" d="M65.6218,48.3621c-.0047-.119-.2039-.13-.21-.0083-.1212,2.4584-1.8532,4.3476-2.45,6.6593-.05.1855.2436.2768.3214.1C64.1726,53.0025,65.7939,50.7491,65.6218,48.3621Z"/><path class="cls-131" d="M68.1891,49.8389c-.72,1.4044-1.1454,2.945-1.8252,4.3753-.1051.21.21.3453.3264.1461A22.3579,22.3579,0,0,0,68.3938,49.9C68.427,49.7806,68.2443,49.7365,68.1891,49.8389Z"/></g></g><path class="cls-132" d="M30.2052,72.9153a4.9921,4.9921,0,1,1-4.99-4.9944A4.9939,4.9939,0,0,1,30.2052,72.9153Z"/><path class="cls-133" d="M29.3647,72.9153a4.1529,4.1529,0,1,1-4.1494-4.1538A4.1517,4.1517,0,0,1,29.3647,72.9153Z"/><g class="cls-28"><path class="cls-134" d="M25.2153,68.7615a3.6728,3.6728,0,0,0-.4642.0276v8.25a4.2788,4.2788,0,0,0,.4642.03,4.2038,4.2038,0,0,0,.46-.03v-8.25A3.6065,3.6065,0,0,0,25.2153,68.7615Z"/></g><g class="cls-135"><path class="cls-136" d="M70.678,53.661c-.5035-5.1635-3.8993-6.5467-6.67-8.4353-2.7722-1.8862-6.1678-1.1311-8.4359-7.05C53.31,32.26,51.296,29.4891,47.6459,28.9884c-3.6512-.5032-20.14,10.1972-26.5566,17.9988C14.6679,54.79,2.2109,77.07.4469,97.079c-1.7618,20.0124,1.764,17.9988,9.1867,20.0124,7.4285,2.0136,27.1869,1.0092,35.4956-.3759s7.4225-3.5239,6.7972-9.821c-.63-6.2891-4.53-17.4931-4.4079-25.7955.1274-8.311,3.65-21.65,14.8515-24.8,3.2741-.9178,5.0333,1.51,7.0468,1.7649C71.4357,58.3154,71.1811,58.8186,70.678,53.661Zm-2.7492,1.0952c-1.3277.3234-2.9373-.6-4.1933-.8878a13.5522,13.5522,0,0,0-7.5276.13c-3.85,1.4687-6.6156,4.8042-8.4629,8.3859C43.3147,70.96,43.5906,80.0675,44.2,89.4732c.2593,4.0465,1.1839,8.0236,1.4045,12.0724.1272,2.3287.338,5.1964-1.1452,7.2072-2.5768,3.5015-7.2673,3.8667-11.2886,4.1047-4.1046.2379-8.22.37-12.3356.2486a50.0158,50.0158,0,0,1-8.0094-.4924c-2.2758-.4343-5.1546-1.2554-6.2863-3.5317-1.1529-2.32-1.13-4.8454-1.0975-7.3839C5.6406,86.7633,9.1392,71.8425,17.11,59.1343A86.7971,86.7971,0,0,1,31.0511,41.58c2.6058-2.414,15.4049-12.34,19.3543-9.967,1.66.9956,2.3128,2.5632,3.1974,4.22a49.8975,49.8975,0,0,0,4.0816,7.0409c2.5777,3.3415,7.4789,3.28,10.0733,6.5574C68.7807,50.73,70.6936,54.0729,67.9288,54.7562Z"/></g><g class="cls-137"><path class="cls-138" d="M70.678,53.661c-.5035-5.1635-3.8993-6.5467-6.67-8.4353-2.7722-1.8862-6.1678-1.1311-8.4359-7.05C53.31,32.26,51.296,29.4891,47.6459,28.9884c-3.6512-.5032-20.14,10.1972-26.5566,17.9988A98.9749,98.9749,0,0,0,9.7288,65.94q1.7949.0537,3.592.0883a69.6173,69.6173,0,0,1,3.789-6.8944A86.7971,86.7971,0,0,1,31.0511,41.58c2.6058-2.414,15.4049-12.34,19.3543-9.967,1.66.9956,2.3128,2.5632,3.1974,4.22a49.8975,49.8975,0,0,0,4.0816,7.0409c2.5777,3.3385,7.4789,3.28,10.0676,6.555a12.2787,12.2787,0,0,1,2.2067,8.7092C71.3811,58.36,71.1307,58.299,70.678,53.661Z"/></g><g class="cls-139"><path class="cls-140" d="M68.8309,57.14c-2.5174-1.8445-3.4413-2.8542-7.6334-2.35-4.53.5444-9.0709,4.0212-11.14,7.7131-4.9568,8.836-4.6409,18.2285-3.9668,27.9224.293,4.1707,1.3277,8.2715,1.5716,12.4424.1436,2.4005.3758,5.3543-1.2786,7.4285-2.8817,3.61-8.1308,3.9882-12.622,4.2291-4.5914.2458-9.1906.3787-13.79.2569a60.391,60.391,0,0,1-8.9554-.5035c-2.55-.4508-5.7686-1.3-7.03-3.645-1.288-2.39-1.2667-4.9921-1.2278-7.6083.2244-15.3937,6.0629-36.31,14.9737-49.409,5.9289-8.7146,8.5561-10.5785,13.2583-14.6,2.0962-1.792,10.2492-7.7632,16.2948-10.0419-4.2641.1462-19.9683,10.443-26.1962,18.0125C14.6679,54.79,2.2109,77.07.4469,97.079c-1.7618,20.0124,1.764,17.9988,9.1867,20.0124,7.4285,2.0136,27.1869,1.0092,35.4956-.3759s7.4225-3.5239,6.7972-9.821c-.63-6.2891-4.53-17.4931-4.4079-25.7955.1274-8.311,3.65-21.65,14.8515-24.8,3.2741-.9178,5.0333,1.51,7.0468,1.7649,1.1951.15,1.5932.3846,1.6146-.5172A4.5423,4.5423,0,0,1,68.8309,57.14Z"/></g><g class="cls-141"><path class="cls-142" d="M63.283,46.9376c-6.2846-2.2155-17.1251-.7718-22.8724,4.234-9.1206,7.94-8.7729,20.8976-10.8914,31.8443-.8022,4.1485-1.8339,10.5674-6.0017,12.799-3.4346,1.8367-7.1954.1082-9.4751-2.7624-6.7283-8.4743-4.28-20.0707-2.705-30.3922C6.2739,72.6141,1.4892,85.2451.4469,97.079c-1.7618,20.0124,1.764,17.9988,9.1867,20.0124,7.4285,2.0136,27.1869,1.0092,35.4956-.3759s7.4225-3.5239,6.7972-9.821c-.63-6.2891-4.53-17.4931-4.4079-25.7955.1274-8.311,3.65-21.65,14.8515-24.8,3.2741-.9178,5.0333,1.51,7.0468,1.7649,1.4109.1738,1.71.473,1.5932-1.1287C70.9325,52.7786,67.4751,48.417,63.283,46.9376Z"/></g><g class="cls-137"><path class="cls-143" d="M45.881,30.8774C41.1624,32.454,19.58,44.2189,9.6336,71.7818c-9.9423,27.5653-5.788,40.152.5042,40.4006,6.2949.2516,32.3911-1.3277,32.093-14.4754-.2935-13.1428-2.0137-24.7917-12.7116-20.2615s-12.08-5.6637-7.8016-9.0628c4.2788-3.3962,8.8089.1273,10.07,2.8955A34.3643,34.3643,0,0,1,42.2308,54.0339c8.5233-7.5246,12.2463-10.9213,11.1565-16.5968C52.3034,31.76,50.4168,29.3676,45.881,30.8774Z"/></g><path class="cls-25" d="M90.0594,58.88a12.0655,12.0655,0,0,0,.2545,10.26c2.135,4.47,4.95,5.534,4.95,5.534s-3.5667-.6245-5.8358-5.7249A10.2983,10.2983,0,0,1,90.0594,58.88Z"/><path class="cls-25" d="M104.3533,77.3323s-.1224.0744-.3439.2133c-.231.13-.5479.3594-.985.5832-.225.1078-.47.2267-.74.354-.1338.0637-.2776.1326-.4212.2021-.15.0578-.3089.1132-.47.1709-.32.1224-.6621.2545-1.0332.3793q-.5655.1536-1.1792.3153a13.2022,13.2022,0,0,1-1.3.2626,12.8654,12.8654,0,0,1-1.3988.2074c-.4875.0389-.9847.1078-1.4938.1355-.5146.0082-1.0335.0223-1.5657.0335-.5362.0219-1.0724-.0335-1.62-.0524-.536-.0223-1.1052-.0447-1.6531-.1107-.5479-.0584-1.1013-.1025-1.6648-.1744-.5595-.0889-1.1228-.1743-1.6821-.26-.56-.1054-1.1112-.2439-1.6591-.3624-.5539-.1194-1.09-.3044-1.626-.4535a21.5683,21.5683,0,0,1-3.06-1.2035c-.4818-.2292-.9343-.5032-1.3834-.7547-.4195-.2934-.8449-.5644-1.2333-.8659A13.4016,13.4016,0,0,1,75.855,74.044c-.138-.1632-.2662-.3234-.3983-.4814-.1163-.1685-.233-.3345-.3418-.4948a8.9192,8.9192,0,0,1-.5712-.94,7.3014,7.3014,0,0,1-.4311-.866,5.95,5.95,0,0,1-.3147-.7552,10.4139,10.4139,0,0,1-.3594-1.09c-.072-.2515-.1108-.3866-.1108-.3866s.0487.13.1381.3788c.0835.2487.2213.6139.4195,1.0617a7.138,7.138,0,0,0,.35.73,8.6257,8.6257,0,0,0,.47.8352,8.8834,8.8834,0,0,0,.6079.8931c.1165.152.233.3095.3477.47.1341.1492.272.3017.41.459a12.8331,12.8331,0,0,0,1.9914,1.8009c.3864.2792.8082.5332,1.2276.8072.4488.2242.886.4982,1.3559.7168a22.2584,22.2584,0,0,0,3.0091,1.1446c.5305.1414,1.0571.3209,1.599.4317.5478.11,1.09.24,1.6377.337.5513.0914,1.0992.1827,1.6471.2711.5539.0776,1.1112.1243,1.6591.1939.5535.0687,1.09.0994,1.6317.1271.5362.0189,1.0685.08,1.593.0636.5265-.0029,1.0411-.0029,1.55-.0087.4972-.0107.9887-.0631,1.47-.0909a11.1606,11.1606,0,0,0,1.389-.1607c.4411-.0719.884-.1048,1.2881-.2127.41-.1.8024-.1884,1.1735-.2738.369-.1051.7128-.2216,1.0391-.3206.1612-.0525.32-.1025.47-.15.15-.0635.2873-.1189.4254-.1768.272-.1165.5206-.2215.7478-.3157.4468-.202.7848-.4036,1.0181-.5195C104.2249,77.3988,104.3533,77.3323,104.3533,77.3323Z"/><path class="cls-25" d="M73.8523,56.25s.0774-.1632.2215-.4732a3.328,3.328,0,0,1,.299-.5555c.0661-.1053.1381-.2156.2156-.3376.0388-.0577.0777-.1218.1224-.1825.0485-.0577.0992-.119.1535-.1774a4.3751,4.3751,0,0,1,.7635-.741,2.8609,2.8609,0,0,1,.4875-.3623l.5693-.3175a7.4919,7.4919,0,0,1,2.9217-.6834c1.0995-.0665,2.2785-.0442,3.5277-.0694,1.2513-.0137,2.5721-.033,3.9376-.0273,1.362.0078,2.7722.02,4.204.0248,1.4338.0249,2.8947.0472,4.35.0666,1.4529.066,2.908.0966,4.3475.2044.7131.05,1.4259.0914,2.1292.1491.7069.0971,1.3869.169,2.09.2768a8.5964,8.5964,0,0,1,.99.274l.4858.1738c.1555.0666.305.1438.4545.2186a8.0779,8.0779,0,0,1,1.6474,1.07,9.5076,9.5076,0,0,1,2.269,2.7487,11.7119,11.7119,0,0,1,1.0782,2.8077,13.155,13.155,0,0,1,.3147,2.2792c.0116.32.0176.608.0233.8517-.0176.2488-.0291.4585-.039.63-.0233.337-.0288.52-.0288.52s0-.1826.0055-.52v-.63c-.0154-.2437-.0388-.5254-.06-.844a13.23,13.23,0,0,0-.3981-2.2427,12.2263,12.2263,0,0,0-1.1442-2.7077,9.0453,9.0453,0,0,0-2.2457-2.6084,8.2688,8.2688,0,0,0-1.5989-.9814,7.7892,7.7892,0,0,0-1.859-.6115c-.647-.0962-1.3444-.1656-2.03-.2516-.6974-.0553-1.4047-.0884-2.1195-.1351-1.42-.0941-2.875-.1106-4.33-.1689-1.4552-.033-2.9044-.066-4.3359-.1025-1.4281-.0189-2.8443-.0359-4.2041-.0524-1.3677-.0165-2.6825-.0306-3.9338-.0472-1.2432-.0029-2.44-.0524-3.518-.0135a7.7588,7.7588,0,0,0-2.8537.57c-.1944.1026-.3807.1962-.5635.2876a3.3839,3.3839,0,0,0-.4875.3317,4.1294,4.1294,0,0,0-.7692.6974,2.2217,2.2217,0,0,0-.1652.1685c-.039.0578-.0837.116-.1224.1773-.0835.113-.1592.2186-.231.3175a2.8946,2.8946,0,0,0-.3226.54C73.9417,56.0922,73.8523,56.25,73.8523,56.25Z"/><path class="cls-144" d="M133.2264,20.3043a3.5585,3.5585,0,0,0,2.8984,3.4461,41.8856,41.8856,0,0,0-1.2336-6.4A3.4967,3.4967,0,0,0,133.2264,20.3043Z"/><path class="cls-145" d="M132.9778,34.6555a3.5024,3.5024,0,0,0,1.8359,3.0532,34.0167,34.0167,0,0,0,1.3948-6.5548A3.5788,3.5788,0,0,0,132.9778,34.6555Z"/><g class="cls-24"><path class="cls-25" d="M134.3609,17.8123s-2.5777.108-6.4611.1744c-.9676.0137-2.0185.0248-3.1257.0414-1.1111.0053-2.2846.014-3.4947.0194-2.4245-.0166-5.0119-.036-7.5959-.0578-5.1654-.0418-10.3383-.0806-14.2159-.1136-.9734.0028-1.857-.0471-2.6438.0135a19.4342,19.4342,0,0,0-2.0128.2686,10.98,10.98,0,0,0-1.2723.2875c-.2933.08-.4488.1219-.4488.1219l-.0214-.0472s.1615-.0469.4545-.13a10.2677,10.2677,0,0,1,1.2766-.318,19.5768,19.5768,0,0,1,2.02-.307c.7848-.0771,1.68-.0471,2.6478-.066,3.8776-.0306,9.0505-.0725,14.2159-.1137,2.584-.0194,5.1714-.0387,7.5959-.0606,1.21.0052,2.3836.0135,3.4947.0219,1.1072.0111,2.1581.0275,3.1257.0387,3.8834.0665,6.4611.1768,6.4611.1768Z"/></g><g class="cls-24"><path class="cls-25" d="M134.3609,31.7405s-2.5777.11-6.4611.1738c-.9676.0142-2.0185.0306-3.1257.0447-1.1111.0054-2.2846.0137-3.4947.0189-2.4245-.0164-5.0119-.0382-7.5959-.0636-5.1654-.0387-10.3383-.0772-14.2159-.1107-.9734,0-1.857-.0441-2.6438.0141-.7789.0719-1.4532.1578-2.0128.2681a10.3542,10.3542,0,0,0-1.2723.2905l-.4488.1189-.0214-.0471s.1615-.0471.4545-.1267A10.5526,10.5526,0,0,1,94.8,32a19.6452,19.6452,0,0,1,2.02-.3045c.7848-.08,1.68-.0466,2.6478-.0661,3.8776-.03,9.0505-.0718,14.2159-.1165,2.584-.0188,5.1714-.0383,7.5959-.0607,1.21.0083,2.3836.017,3.4947.0224,1.1072.0135,2.1581.0306,3.1257.0383,3.8834.0694,6.4611.1773,6.4611.1773Z"/></g><g class="cls-24"><path class="cls-25" d="M68.7474,26.0929s.7578,3.6919,3.1041,5.0361c2.35,1.3414,3.6052.3347,4.95-1.1752a6.0348,6.0348,0,0,1,3.86-2.0053,5.0772,5.0772,0,0,0-4.07,1.8586c-1.8414,2.0965-3.6676,1.7285-5.2216.5007A8.0728,8.0728,0,0,1,68.7474,26.0929Z"/></g><path class="cls-25" d="M144.7636,5.3694s-7.6772.0554-19.1989.1413c-5.7638.0219-12.4832.0472-19.6847.0773-7.1973.0082-14.88.0194-22.5632.033-3.8386-.0053-7.6833-.0136-11.4616-.0165h-.7518c.0387-.0054-.0154,0-.0154,0l-.0894.0112c-.0661.0053-.0777.0277-.1225.0359a1.21,1.21,0,0,0-.2585.1384,4.1992,4.1992,0,0,0-.9522.9267,9.6138,9.6138,0,0,0-1.3327,2.3758A31.6945,31.6945,0,0,1,65.8043,13.99a26.5578,26.5578,0,0,1-7.1622,7.5281,28.4993,28.4993,0,0,1-8.4078,4.0048,33.8509,33.8509,0,0,1-7.7606,1.3191c-.5866.03-1.1558.05-1.6978.0636a7.2832,7.2832,0,0,1-.8131.014,5.6084,5.6084,0,0,1-.7694-.136,2.0943,2.0943,0,0,0-1.3879,0,1.6729,1.6729,0,0,0-.681,1.051,14.01,14.01,0,0,0-.2816,2.2126c-.0611.65-.1,1.2035-.1883,1.6459-.144.89-.2205,1.3631-.2205,1.3631s.066-.4728.1982-1.366c.0834-.4395.1107-1.001.1609-1.6453a14.944,14.944,0,0,1,.2489-2.2351,1.7369,1.7369,0,0,1,.7128-1.1171,1.26,1.26,0,0,1,.72-.1441,5.0072,5.0072,0,0,1,.7411.1107,5.7735,5.7735,0,0,0,.7578.1166,6.5838,6.5838,0,0,0,.7965-.0253c.5479-.0219,1.1121-.0467,1.6928-.0913a35.0591,35.0591,0,0,0,7.688-1.4075,28.4054,28.4054,0,0,0,8.28-4.0323,26.7377,26.7377,0,0,0,7.0031-7.4646,31.5316,31.5316,0,0,0,2.4836-4.84A9.7572,9.7572,0,0,1,69.306,6.4292a4.6957,4.6957,0,0,1,1.0573-1.032,1.7585,1.7585,0,0,1,.3651-.1851,1.2275,1.2275,0,0,1,.22-.0583l.0835-.0136a.4621.4621,0,0,1,.072-.0057h.7518c3.7783-.0055,7.623-.0107,11.4616-.0167C91,5.129,98.6827,5.14,105.88,5.1509c7.2015.0306,13.9209.0553,19.6847.0807C137.0864,5.3117,144.7636,5.3694,144.7636,5.3694Z"/><path class="cls-25" d="M65.96,9.2305s-.033-.0107-.0941-.0249a1.25,1.25,0,0,1-.2546-.0859,2.2633,2.2633,0,0,1-.8352-.6168c-.31-.3264-.6082-.7907-.984-1.272a1.8822,1.8822,0,0,0-.6974-.6025l-.1051-.0336-.0278-.0112-.0109-.0024c.033.0053.0059,0,.0109.0024l-.0167-.0024-.066-.003c-.0884-.0082-.1826-.0164-.271-.0276a2.7377,2.7377,0,0,0-.5032.083A18.7544,18.7544,0,0,0,59.8968,7.668a5.9948,5.9948,0,0,1-1.31.4426,5.76,5.76,0,0,1-.72.0941c-.2487.0025-.4916-.0194-.74-.0253A10.74,10.74,0,0,1,54.25,7.3388,22.4972,22.4972,0,0,0,51.4952,6.13a17.2588,17.2588,0,0,0-2.915-.66,24.92,24.92,0,0,0-2.8984-.2521q-.7142-.0246-1.3938-.0164c-.4595-.0054-.9013.0164-1.3384.0412a22.3424,22.3424,0,0,0-2.4285.26c-.371.0579-.7245.1467-1.0625.2128-.337.0776-.6467.1715-.945.2491-.2933.0937-.5586.2015-.8082.2958-.2486.0971-.4594.2239-.6574.318a3.6366,3.6366,0,0,0-.5032.3045,2.0338,2.0338,0,0,0-.3546.26c-.1719.16-.26.2487-.26.2487s.0834-.0938.2439-.2711a1.9232,1.9232,0,0,1,.3321-.285,3.39,3.39,0,0,1,.4915-.3429c.1942-.1048.404-.2487.6467-.3594.25-.1048.5151-.2321.8082-.3457.2935-.0938.6079-.21.9462-.31.3368-.0825.6974-.1821,1.0722-.2543a23.1893,23.1893,0,0,1,2.4565-.3484,22.3957,22.3957,0,0,1,2.7653-.0937,25.3088,25.3088,0,0,1,2.9548.224,17.4789,17.4789,0,0,1,3.0081.6444c.2437.0913.504.1738.7411.2734L53.1,6.249c.4478.2185.89.4536,1.3387.6585a10.26,10.26,0,0,0,2.732.8377,4.969,4.969,0,0,0,2.5829-.4147A18.6774,18.6774,0,0,1,62.0327,6.36a2.6283,2.6283,0,0,1,.6023-.0688c.0884.0111.1826.0219.271.033l.067.0083.0164.0028.0214.0054.0059.0029.0388.0141.1381.0495a2.1127,2.1127,0,0,1,.7527.7111c.3487.5166.6137.9844.9014,1.3219a2.3225,2.3225,0,0,0,.7741.6551,1.2569,1.2569,0,0,0,.25.1025C65.9268,9.22,65.96,9.2305,65.96,9.2305Z"/><path class="cls-25" d="M42.734,24.5854a3.8161,3.8161,0,0,1,.3264-.5639,7.452,7.452,0,0,1,1.1062-1.3167,8.0774,8.0774,0,0,1,.8792-.7439,8.8822,8.8822,0,0,1,1.09-.7,10.131,10.131,0,0,1,1.2607-.5779,3.5956,3.5956,0,0,1,.6974-.1962,7.08,7.08,0,0,1,.7351-.1,13.9541,13.9541,0,0,1,2.7936.1656c.88.1247,1.6814.3127,2.3728.4677.6858.152,1.25.321,1.6484.4259.3981.1132.6256.1767.6256.1767s-.2379-.0277-.6422-.0825c-.4088-.0583-.99-.1442-1.6872-.2438-.6906-.1078-1.5043-.21-2.3728-.3069a17.1112,17.1112,0,0,0-2.7041-.102c-.2214.0218-.4546.0383-.6585.08a3.4268,3.4268,0,0,0-.6422.1718,11.0674,11.0674,0,0,0-1.222.5144,11.83,11.83,0,0,0-1.0848.6085,8.8124,8.8124,0,0,0-.907.6527,9.0462,9.0462,0,0,0-1.2106,1.1641A5.68,5.68,0,0,0,42.734,24.5854Z"/></g></g></g></svg>